<svg style="width: 100%" viewBox="0 0 210 140" fill="none" xmlns="http://www.w3.org/2000/svg">
<g clip-path="url(#clip0)">
<path d="M21.0329 23.813C26.7098 23.813 31.3118 19.408 31.3118 13.9741C31.3118 8.54026 26.7098 4.13525 21.0329 4.13525C15.356 4.13525 10.754 8.54026 10.754 13.9741C10.754 19.408 15.356 23.813 21.0329 23.813Z" fill="#0652DD"/>
<path opacity="0.1" d="M19.7772 34.0033C24.093 43.3342 18.5877 54.0789 12.1072 62.1696C9.93825 64.8828 7.54375 67.7271 7.24305 71.1302C6.88045 75.2931 9.82549 79.1194 13.3189 81.6209C19.6909 86.1795 28.3934 87.589 35.9771 85.2885C42.5305 83.3013 48.0403 78.8125 54.6511 77.0031C65.7061 73.9725 77.4244 78.9967 86.8918 85.2568C93.5933 89.682 100.77 95.0745 108.849 94.1263C114.534 93.4597 119.358 89.6397 122.633 85.1425C124.213 82.9711 125.589 80.5373 127.89 79.0728C129.259 78.2009 130.866 77.7395 132.474 77.4094C147.152 74.4063 162.731 81.7352 177.215 77.966C186.999 75.4264 194.799 68.0192 199.65 59.4967C204.501 50.9742 206.765 41.3512 208.651 31.8171C209.991 25.0448 211.103 17.7287 208.023 11.5003C204.764 4.90577 197.22 0.908006 189.639 0.158822C182.057 -0.590362 174.454 1.4773 167.469 4.39361C158.742 8.04641 150.188 13.1595 140.663 13.1764C134.176 13.1891 127.99 10.8061 121.788 8.98819C111.418 5.95124 100.635 4.44229 89.8899 3.04974C79.6022 1.71645 69.2127 0.476273 58.8631 1.26355C51.5403 1.82015 45.0731 4.49943 37.967 5.73961C33.335 6.54805 28.6808 5.95124 24.135 7.30569C18.5368 8.98183 12.7794 12.8653 12.4698 18.9815C12.178 24.8036 17.4888 29.0532 19.7772 34.0033Z" fill="#0652DD"/>
<path d="M133.08 42.3119C132.135 39.9564 129.701 34.4201 128.098 35.5185C126.073 36.9068 130.123 43.0399 130.123 43.0399C130.238 44.1658 127.961 46.5086 126.741 47.6768C126.741 47.5837 126.741 47.5308 126.741 47.5308C126.729 47.5752 126.711 47.618 126.688 47.6578L126.586 47.6049C126.559 47.6982 126.509 47.7844 126.442 47.8567C126.442 47.698 126.431 47.6049 126.431 47.6049C126.197 48.5551 122.106 49.7593 122.106 49.7593C122.106 49.7593 121.996 49.7593 121.806 49.7593C120.669 49.7593 117.711 49.5138 116.34 47.4144C115.631 46.2771 114.724 45.2643 113.658 44.4198C113.293 44.146 112.85 43.9851 112.387 43.9584C108.599 43.7256 105.533 41.8908 104.92 41.4993L104.808 41.4252L104.783 41.4929C104.64 41.2961 104.5 41.0866 104.37 40.8707L104.303 40.7543C105.22 40.3138 105.992 39.6389 106.532 38.8043C107.073 37.9698 107.361 37.0083 107.366 36.0264C107.366 35.9904 107.366 35.9523 107.366 35.9164C107.699 35.3651 107.874 34.7395 107.874 34.1027V33.4678L108.739 32.7313C109.134 32.3948 109.544 32.0392 109.745 31.5757C109.826 31.3882 109.862 31.1858 109.851 30.9832C109.87 30.8096 109.843 30.6341 109.772 30.4734C109.701 30.3127 109.588 30.172 109.444 30.0647C108.781 29.6266 107.675 30.0647 107.195 29.4552C106.974 29.1801 107.014 28.8055 106.906 28.4817C106.685 27.8235 105.889 27.4679 105.153 27.4573C104.416 27.4468 103.711 27.7028 103.003 27.8954C101.517 28.2994 99.9657 28.4385 98.4267 28.306C98.0104 28.2351 97.5831 28.2495 97.173 28.3483C96.9226 28.4474 96.7 28.6015 96.5233 28.7982C96.3466 28.9949 96.2208 29.2287 96.156 29.4806C96.1013 29.6698 96.0687 29.8643 96.0587 30.0604C95.4419 30.7264 95.1006 31.5852 95.0991 32.4752V34.1027C95.1005 34.9715 95.4259 35.8113 96.0167 36.4708C96.0864 37.2366 96.3297 37.9786 96.7294 38.6453C97.1292 39.3119 97.676 39.8872 98.3316 40.331C98.3316 40.3734 98.3316 40.4164 98.3316 40.4601L98.3603 40.4771C98.3246 40.9816 98.2432 41.4822 98.1171 41.9733V41.8654C98.1171 41.8654 95.0217 43.4421 91.7053 43.4801H91.3404C90.6862 43.459 90.05 43.6874 89.5716 44.115C88.59 44.9997 86.8698 46.3986 85.813 46.3986C85.5919 46.3986 80.0113 47.4419 79.0871 47.6155L77.3603 45.9965L77.3073 46.0917L77.2056 45.9965C77.0167 46.0104 76.8291 46.0366 76.644 46.0748C75.7596 45.0716 73.9908 42.7394 73.5818 39.6094C73.5818 39.6094 77.4001 35.4465 75.9962 31.5673C74.7978 28.2616 71.4968 35.3471 70.5593 37.4824C70.3953 37.8551 70.375 38.2713 70.5018 38.657L73.6039 48.2271C73.3085 48.9687 73.2238 49.772 73.3584 50.5551H73.3231L75.5827 53.3296C75.5827 53.3296 77.283 54.0237 79.9428 54.011C81.8922 54.0141 83.8241 53.6592 85.6339 52.9656H86.1579L86.0584 53.0016H88.7492L90.4605 57.9559C90.403 58.4067 89.5761 64.6986 88.9128 66.1059C88.716 66.5761 88.627 67.0814 88.6519 67.5874C88.6867 68.5596 88.8524 69.5234 89.1449 70.455L90.644 70.4021L90.5865 70.5142C89.3174 73.0052 87.197 77.4431 85.9434 81.5912L83.7612 85.8238L85.3973 104.807H85.4636L85.5897 104.826C85.7665 104.852 86.0318 104.89 86.3812 104.932L86.253 105.144L82.6468 110.858C82.6468 110.858 80.0754 115.897 85.7643 114.947C85.7643 114.947 87.867 114.363 88.7248 110.926L92.4658 107.567C92.4658 107.567 92.6405 105.336 91.5814 104.446C91.5151 103.415 91.3471 100.405 91.6058 99.6816C91.9175 98.8055 90.2792 88.7296 90.2792 88.7296C90.2792 88.7296 96.2002 76.9733 99.7864 76.6813C100.049 76.6636 100.313 76.6967 100.562 76.7786C103.51 77.6971 107.08 84.5181 108.131 86.6408L108.179 86.7381V86.7571L108.219 86.8397V86.863L108.255 86.9349V86.954L108.285 87.0196V87.0344L108.312 87.0873V87.1085L108.332 87.1487V87.1656L108.345 87.1952V87.2122V87.2312L108.356 87.2566L108.823 100.473L108.869 100.496H108.891L108.851 100.769L108.648 102.134C108.648 102.134 111.219 107.319 111.062 107.976C110.906 108.632 112.776 111.262 115.425 110.532C118.074 109.802 116.497 105.686 116.497 105.686L113.946 100.653L113.833 100.429C114.087 100.279 114.327 100.109 114.549 99.9187C114.549 99.9187 113.771 94.5156 114.549 93.3474C115.327 92.1792 115.562 86.8481 115.562 86.8481C115.562 86.8481 115.016 83.1975 114.08 81.5912L110.163 68.2053C111.337 69.2508 112.25 69.6592 113.013 69.6317H113.139C113.474 69.6378 113.805 69.5589 114.098 69.4032C114.256 69.3181 114.404 69.2181 114.54 69.1048C114.566 69.0832 114.591 69.0599 114.613 69.0349C115.703 68.1588 113.366 64.7261 112.042 62.6859C110.766 60.7177 112.524 55.3697 112.657 54.9719C112.775 54.8889 112.901 54.818 113.035 54.7602C113.309 54.6478 113.603 54.5867 113.901 54.5803C115.171 54.6227 116.731 55.3211 118.664 55.6724C120.007 55.891 121.368 55.9923 122.73 55.975H122.809C123.351 55.975 123.842 55.9644 124.24 55.9496C124.603 55.9359 124.958 55.8441 125.279 55.6808C125.554 55.5273 125.803 55.3347 126.018 55.1094L129.409 51.4418L129.321 51.482C129.485 51.0661 129.485 50.607 129.321 50.1911L132.905 44.2653C133.086 43.9733 133.195 43.646 133.226 43.3077C133.256 42.9695 133.206 42.6291 133.08 42.3119Z" fill="url(#paint0_linear)"/>
<path d="M92.8135 107.066L89.2029 110.378C88.376 113.764 86.3441 114.337 86.3441 114.337C80.8542 115.273 83.3349 110.316 83.3349 110.316L86.8172 104.676L87.2462 103.98C87.2462 103.98 89.7291 103.26 91.3829 103.692C91.5917 103.747 91.7846 103.847 91.9468 103.984C92.9837 104.846 92.8135 107.066 92.8135 107.066Z" fill="#444176"/>
<path d="M115.076 110.018C112.518 110.738 110.713 108.147 110.875 107.498C111.036 106.848 108.538 101.745 108.538 101.745L108.732 100.399L108.914 99.1528L113.115 99.4407L113.51 100.236L115.973 105.199C115.973 105.199 117.634 109.299 115.076 110.018Z" fill="#444176"/>
<path opacity="0.1" d="M91.9859 104.547C91.5902 105.197 88.382 104.869 86.8188 104.666L87.2478 103.969C87.2478 103.969 89.7307 103.25 91.3845 103.681C91.5933 103.736 91.7862 103.836 91.9483 103.973C91.9704 104.325 91.9859 104.547 91.9859 104.547Z" fill="black"/>
<path opacity="0.1" d="M113.514 100.232C111.363 101.603 109.073 100.566 108.728 100.395L108.909 99.1484L113.11 99.4363L113.514 100.232Z" fill="black"/>
<path d="M114.098 93.0281C113.346 94.1794 114.098 99.5083 114.098 99.5083C111.615 101.669 108.683 100.084 108.683 100.084L108.241 87.0537C108.241 87.0537 103.352 76.326 99.8921 76.6138C96.4319 76.9016 90.7165 88.4928 90.7165 88.4928C90.7165 88.4928 92.2951 98.4269 91.9944 99.2861C91.6937 100.145 91.9944 104.325 91.9944 104.325C91.4682 105.189 85.9783 104.325 85.9783 104.325L84.3997 85.6061L86.4957 81.4284C87.7007 77.3397 89.748 72.9631 90.9729 70.5081C91.581 69.287 91.9878 68.5421 91.9878 68.5421L95.9897 67.7442L108.979 65.1665L113.647 81.4284C114.549 83.0115 115.075 86.6114 115.075 86.6114C115.075 86.6114 114.849 91.8768 114.098 93.0281Z" fill="#565387"/>
<g opacity="0.1">
<path opacity="0.1" d="M109.887 100.084L109.445 87.0535C109.445 87.0535 104.556 76.3258 101.096 76.6136C100.941 76.628 100.789 76.6607 100.643 76.7109C104.017 77.7839 108.242 87.0535 108.242 87.0535L108.684 100.084C109.607 100.534 110.647 100.715 111.676 100.607C111.052 100.535 110.446 100.358 109.887 100.084Z" fill="black"/>
<path opacity="0.1" d="M87.1733 104.331L85.5946 85.6121L87.6995 81.4281C88.9045 77.3394 90.9519 72.9628 92.1767 70.5078C92.7848 69.2867 93.1916 68.5417 93.1916 68.5417L97.1935 67.7439L109.051 65.3842L108.987 65.1577L95.9907 67.7439L91.9888 68.5417C91.9888 68.5417 91.582 69.2867 90.974 70.5078C89.7447 72.9628 87.7017 77.3478 86.4967 81.4281L84.3918 85.6037L85.9705 104.323C85.9705 104.323 88.9686 104.795 90.7462 104.691C89.5497 104.629 88.3572 104.509 87.1733 104.331Z" fill="black"/>
</g>
<path d="M78.0258 46.3413C78.0258 46.3413 73.7387 46.5529 74.3401 50.8766L75.5428 51.0205L77.347 49.1497L78.2491 47.5667V47.2069L78.0258 46.3413Z" fill="#CED2DF"/>
<path opacity="0.1" d="M78.0258 46.3413C78.0258 46.3413 73.7387 46.5529 74.3401 50.8766L75.5428 51.0205L77.347 49.1497L78.2491 47.5667V47.2069L78.0258 46.3413Z" fill="black"/>
<path d="M125.719 47.9243C125.719 47.9243 129.257 49.7232 128.353 51.812L127.225 52.2353L125.722 51.4438L125.5 49.5729L125.651 48.2777L125.719 47.9243Z" fill="#CED2DF"/>
<path opacity="0.1" d="M125.719 47.9243C125.719 47.9243 129.257 49.7232 128.353 51.812L127.225 52.2353L125.722 51.4438L125.5 49.5729L125.651 48.2777L125.719 47.9243Z" fill="black"/>
<path d="M103.006 29.3491H99.9965C97.4212 29.3491 95.3335 31.3474 95.3335 33.8125C95.3335 36.2775 97.4212 38.2758 99.9965 38.2758H103.006C105.581 38.2758 107.669 36.2775 107.669 33.8125C107.669 31.3474 105.581 29.3491 103.006 29.3491Z" fill="#88455E"/>
<path d="M77.9975 46.9532L75.3642 50.9742L75.1431 50.2589L71.5657 39.1016C71.4434 38.7212 71.4629 38.312 71.621 37.9439C72.5253 35.8403 75.7135 28.8437 76.8699 32.1134C78.223 35.9228 74.5373 40.0328 74.5373 40.0328C74.9574 43.3681 76.9141 45.785 77.6835 46.6231C77.8781 46.841 77.9975 46.9532 77.9975 46.9532Z" fill="#EC8C9C"/>
<path d="M125.155 48.6801C125.155 48.6801 129.292 44.9363 129.135 43.4253C129.135 43.4253 125.224 37.3789 127.18 36.0181C128.728 34.9345 131.078 40.3947 131.989 42.7163C132.11 43.0255 132.158 43.3563 132.131 43.6853C132.104 44.0143 132.002 44.3336 131.832 44.621L126.889 52.9996L125.155 48.6801Z" fill="#EC8C9C"/>
<path d="M98.3786 38.2424C98.3786 38.2424 99.1304 42.8496 96.9503 44.5787C94.7703 46.3077 103.194 46.2971 103.194 46.2971L106.203 43.6327C106.203 43.6327 102.743 40.5365 103.796 38.2339L98.3786 38.2424Z" fill="#EC8C9C"/>
<path opacity="0.1" d="M98.2273 43.4973C98.2273 43.4973 101.462 45.802 104.694 43.2095L109.959 53.6494L109.658 66.3918C109.658 66.3918 98.7513 71.7906 94.2386 68.4807C89.726 65.1707 93.4869 63.4417 93.4869 63.4417L92.4345 53.6515L93.5621 47.3152C93.5621 47.3152 95.5918 44.2909 95.7443 44.2909C95.8969 44.2909 98.2273 43.4973 98.2273 43.4973Z" fill="black"/>
<path d="M98.2277 43.3532C98.2277 43.3532 101.462 45.6622 104.697 43.0654L109.961 53.5053L109.661 66.2478C109.661 66.2478 98.754 71.6466 94.2413 68.3366C89.7287 65.0267 93.4896 63.2976 93.4896 63.2976L92.4372 53.5074L93.5648 47.1711C93.5648 47.1711 95.5945 44.1469 95.747 44.1469C95.8996 44.1469 98.2277 43.3532 98.2277 43.3532Z" fill="#EBF1F6"/>
<path opacity="0.1" d="M98.2277 42.2759C98.2277 42.2759 95.1611 43.9478 91.8314 43.8653C91.519 43.8559 91.2078 43.9061 90.9159 44.0129C90.6241 44.1197 90.3573 44.281 90.1311 44.4875C89.1826 45.3594 87.5221 46.7392 86.494 46.7392C86.2729 46.7392 79.8743 47.9625 79.8743 47.9625L78.1829 46.3435C78.1829 46.3435 75.6624 51.0587 74.4596 50.8428L76.6418 53.5792C76.6418 53.5792 80.7786 55.3062 86.1933 53.2195H89.3528L91.0067 58.1146C91.0067 58.1146 90.1797 64.7387 89.5032 66.1778C88.8266 67.6169 89.7243 70.4253 89.7243 70.4253L95.6652 70.2137C95.6652 70.2137 95.9659 67.4053 96.4169 67.0392C96.868 66.673 94.8383 54.2967 94.8383 54.2967C94.8383 54.2967 93.4852 47.3128 98.4488 44.7943L98.2277 42.2759Z" fill="black"/>
<path opacity="0.1" d="M95.9878 67.7524C95.769 68.6065 95.6131 69.4742 95.5213 70.3492L90.9733 70.5143C91.5813 69.2931 91.9881 68.5482 91.9881 68.5482L95.9878 67.7524Z" fill="black"/>
<path opacity="0.1" d="M77.9971 46.9529L75.3638 50.9739L75.1427 50.2586C76.1089 49.3401 77.2409 47.4206 77.692 46.6206C77.8777 46.8407 77.9971 46.9529 77.9971 46.9529Z" fill="black"/>
<path d="M98.2275 42.2759C98.2275 42.2759 95.0083 43.9478 91.6808 43.8653C91.3684 43.8559 91.0572 43.9061 90.7654 44.0129C90.4735 44.1197 90.2067 44.281 89.9805 44.4875C89.032 45.3594 87.3715 46.7392 86.3434 46.7392C86.1223 46.7392 79.7237 47.9625 79.7237 47.9625L78.0257 46.3414C78.0257 46.3414 75.5051 51.0566 74.3024 50.8407L76.4846 53.5771C76.4846 53.5771 80.6214 55.3041 86.0361 53.2174H89.1956L90.8494 58.1103C90.8494 58.1103 90.0225 64.7345 89.346 66.1736C88.6694 67.6127 89.5671 70.4211 89.5671 70.4211L95.508 70.2094C95.508 70.2094 95.8087 67.401 96.2597 67.0349C96.7108 66.6688 94.6811 54.2924 94.6811 54.2924C94.6811 54.2924 93.3279 47.3085 98.2916 44.7901L98.2275 42.2759Z" fill="#CED2DF"/>
<path opacity="0.1" d="M104.697 41.8398C104.697 41.8398 107.766 44.0789 111.863 44.3371C112.311 44.364 112.74 44.523 113.09 44.7921C114.123 45.6312 114.999 46.6333 115.679 47.755C117.333 50.3475 121.395 50.0597 121.395 50.0597C121.395 50.0597 125.343 48.8724 125.569 47.9434C125.569 47.9434 125.682 53.0226 128.165 51.7951L124.899 55.3971C124.693 55.6246 124.441 55.8094 124.157 55.9401C123.874 56.0708 123.566 56.1445 123.252 56.1569C122.025 56.2034 119.893 56.2182 118.093 55.8839C115.385 55.3802 113.431 54.1569 112.002 55.2363C112.002 55.2363 110.123 60.8509 111.401 62.8678C112.679 64.8846 114.938 68.2665 113.884 69.1321C112.829 69.9977 111.551 69.9236 109.446 67.8369C107.341 65.7502 107.114 62.2223 107.114 62.2223L107.64 53.1517C107.64 53.1517 105.61 46.3117 103.66 44.9445L104.697 41.8398Z" fill="black"/>
<path opacity="0.1" d="M128.463 51.7046L125.189 55.3214C124.971 55.5613 124.702 55.7534 124.399 55.8843C124.131 56.0005 123.841 56.0659 123.546 56.0769C122.319 56.1256 120.187 56.1404 118.388 55.8039C115.854 55.332 113.979 54.2315 112.577 54.9743C112.478 55.0267 112.383 55.0869 112.294 55.1542C112.294 55.1542 110.415 60.7688 111.693 62.7857C112.971 64.8026 115.23 68.1845 114.176 69.0501C113.999 69.1987 113.801 69.322 113.588 69.4162C112.641 69.8247 111.467 69.4712 109.738 67.7549C107.633 65.6661 107.406 62.1402 107.406 62.1402L107.932 53.0696C107.932 53.0696 105.902 46.2296 103.952 44.8625L104.812 41.9102C105.405 42.2953 108.363 44.1048 112.02 44.3355C112.468 44.3624 112.897 44.5213 113.247 44.7905C114.28 45.6296 115.156 46.6317 115.836 47.7534C117.49 50.3459 121.552 50.0581 121.552 50.0581C122.525 49.7607 123.476 49.3987 124.397 48.9745C124.974 48.7036 125.483 48.4073 125.724 48.128C125.791 48.055 125.841 47.9681 125.868 47.874C125.868 47.874 125.982 52.9278 128.463 51.7046Z" fill="black"/>
<path d="M128.313 51.7764L125.041 55.3974C124.861 55.5962 124.645 55.7624 124.404 55.8884C124.095 56.049 123.751 56.1396 123.4 56.153C122.173 56.2016 120.042 56.2165 118.242 55.88C115.799 55.4249 113.966 54.3837 112.584 54.9784C112.426 55.0442 112.278 55.1288 112.142 55.2302C112.142 55.2302 110.262 60.8449 111.54 62.8618C112.818 64.8786 115.078 68.2605 114.023 69.1261C113.887 69.2385 113.739 69.3371 113.581 69.4203C112.608 69.9346 111.406 69.6319 109.581 67.8309C107.477 65.7421 107.249 62.2163 107.249 62.2163L107.775 53.1456C107.775 53.1456 105.745 46.3056 103.795 44.9385L104.697 41.8423L104.806 41.9142C105.398 42.2994 108.357 44.1089 112.014 44.3396C112.462 44.3665 112.89 44.5254 113.241 44.7946C114.274 45.6337 115.149 46.6358 115.83 47.7574C117.484 50.35 121.545 50.0621 121.545 50.0621C122.519 49.7648 123.47 49.4027 124.391 48.9786C125.074 48.6442 125.631 48.2781 125.717 47.9437C125.717 47.9437 125.717 48.0093 125.717 48.1257C125.784 48.9997 126.115 52.8578 128.313 51.7764Z" fill="#CED2DF"/>
<path opacity="0.1" d="M103.861 38.3501H98.3339C98.4554 39.1913 98.4902 40.042 98.4378 40.8897C99.2816 41.458 100.271 41.7957 101.3 41.8666C102.329 41.9374 103.359 41.7387 104.279 41.2918C103.749 40.3521 103.426 39.2855 103.861 38.3501Z" fill="black"/>
<path d="M101.688 41.768C104.72 41.768 107.178 39.4153 107.178 36.5132C107.178 33.611 104.72 31.2583 101.688 31.2583C98.6559 31.2583 96.198 33.611 96.198 36.5132C96.198 39.4153 98.6559 41.768 101.688 41.768Z" fill="#EC8C9C"/>
<path opacity="0.1" d="M100.547 35.5781C101.16 35.5083 101.772 35.3009 102.376 35.4173C102.924 35.5231 103.391 35.885 103.939 35.995C104.996 36.2067 105.977 35.4617 106.776 34.7676L108.5 33.265C108.883 32.9327 109.276 32.5835 109.473 32.1264C109.67 31.6692 109.601 31.0682 109.181 30.7804C108.551 30.3571 107.465 30.7804 107.01 30.1793C106.804 29.9085 106.835 29.5444 106.729 29.2206C106.508 28.573 105.747 28.2196 105.036 28.2111C104.324 28.2027 103.643 28.4524 102.962 28.6344C101.527 29.0327 100.027 29.1699 98.5396 29.0386C98.1382 28.9683 97.7256 28.982 97.3302 29.0789C97.0868 29.1783 96.8712 29.331 96.7007 29.5247C96.5302 29.7184 96.4096 29.9477 96.3485 30.1942C96.008 31.3454 96.5895 33.2015 97.1732 34.2321C97.7569 35.2628 99.382 35.7157 100.547 35.5781Z" fill="black"/>
<path d="M100.547 35.4336C101.16 35.3638 101.772 35.1564 102.376 35.2728C102.924 35.3786 103.391 35.7405 103.939 35.8505C104.996 36.0622 105.977 35.3172 106.776 34.623L108.5 33.1204C108.883 32.7882 109.276 32.439 109.473 31.9818C109.67 31.5247 109.601 30.9237 109.181 30.6359C108.551 30.2126 107.465 30.6359 107.01 30.0348C106.804 29.7639 106.835 29.3999 106.729 29.0761C106.508 28.4285 105.747 28.0751 105.036 28.0666C104.324 28.0582 103.643 28.3079 102.962 28.4899C101.527 28.8882 100.027 29.0253 98.5396 28.8941C98.1382 28.8238 97.7256 28.8375 97.3302 28.9343C97.0868 29.0338 96.8712 29.1865 96.7007 29.3802C96.5302 29.5739 96.4096 29.8032 96.3485 30.0496C96.008 31.2009 96.5895 33.0569 97.1732 34.0876C97.7569 35.1183 99.382 35.5606 100.547 35.4336Z" fill="#88455E"/>
<path opacity="0.1" d="M90.9718 58.1484C90.9718 58.1484 92.1746 58.2923 92.776 59.0119C93.3774 59.7315 94.4298 59.9473 94.4298 59.9473" fill="black"/>
<path opacity="0.1" d="M80.1401 48.644C80.1401 48.644 81.1218 50.7413 80.516 50.953C79.9102 51.1646 80.1401 52.6799 80.1401 52.6799" fill="black"/>
<g opacity="0.1">
<path opacity="0.1" d="M80.478 47.9242C80.478 47.9242 86.8699 46.7009 87.091 46.7009C88.1214 46.7009 89.7796 45.3211 90.7281 44.4491C91.0166 44.1846 91.3715 43.9958 91.7584 43.901H91.6766C91.3643 43.8916 91.0531 43.9418 90.7612 44.0487C90.4693 44.1555 90.2025 44.3168 89.9764 44.5232C89.0279 45.3951 87.3674 46.775 86.3393 46.775C86.1602 46.775 82.0699 47.5517 80.4094 47.867L80.478 47.9242Z" fill="black"/>
<path opacity="0.1" d="M98.2367 42.5783V42.3096C96.699 43.0601 95.0444 43.5668 93.3372 43.8101C95.031 43.6658 96.6874 43.2494 98.2367 42.5783Z" fill="black"/>
<path opacity="0.1" d="M90.3328 70.385C90.3328 70.385 89.4308 67.5767 90.1117 66.1375C90.7927 64.6984 91.6152 58.0743 91.6152 58.0743L89.9658 53.1792H86.7975L86.6051 53.2512H89.203L90.8502 58.1484C90.8502 58.1484 90.0233 64.7725 89.3467 66.2116C88.6702 67.6507 89.5678 70.4591 89.5678 70.4591L95.5088 70.2475V70.203L90.3328 70.385Z" fill="black"/>
</g>
<g opacity="0.1">
<path opacity="0.1" d="M114.098 67.9747C113.962 68.0871 113.813 68.1857 113.656 68.2689C112.683 68.7832 111.48 68.4805 109.656 66.6795C107.985 65.0224 107.498 62.4468 107.368 61.4712L107.323 62.2161C107.323 62.2161 107.545 65.7441 109.656 67.8308C111.48 69.6382 112.683 69.9344 113.656 69.4202C113.813 69.337 113.962 69.2384 114.098 69.126C114.414 68.8657 114.432 68.3768 114.266 67.7673C114.225 67.8464 114.168 67.9169 114.098 67.9747Z" fill="black"/>
<path opacity="0.1" d="M127.249 51.884L125.12 54.2395C124.94 54.4382 124.724 54.6045 124.483 54.7305C124.174 54.8911 123.831 54.9816 123.479 54.995C122.252 55.0437 120.121 55.0585 118.321 54.722C115.878 54.267 114.045 53.2257 112.663 53.8204C112.505 53.8862 112.357 53.9708 112.221 54.0723C112.221 54.0723 111.007 57.6997 111.193 60.1694C111.337 57.8605 112.221 55.2236 112.221 55.2236C112.357 55.1221 112.505 55.0375 112.663 54.9717C114.047 54.377 115.878 55.4183 118.321 55.8733C120.121 56.2077 122.25 56.1928 123.479 56.1463C123.831 56.1329 124.174 56.0424 124.483 55.8817C124.724 55.7577 124.939 55.5936 125.12 55.3971L128.394 51.7803C128.225 51.8813 128.033 51.9432 127.834 51.9612C127.636 51.9792 127.435 51.9528 127.249 51.884Z" fill="black"/>
</g>
<path d="M31.0951 77.8071C31.1213 77.8315 31.1551 77.8471 31.1913 77.8517C31.2275 77.8562 31.2644 77.8495 31.2963 77.8325C31.2283 77.8337 31.1605 77.8251 31.0951 77.8071Z" fill="url(#paint1_linear)"/>
<path d="M53.6275 42.75C53.2295 42.64 52.6613 42.4601 51.9781 42.2315C52.6881 41.3572 53.2076 40.3555 53.5059 39.2856L53.4484 39.3067C53.4683 39.2411 53.4882 39.1776 53.5059 39.1099C52.1948 39.62 50.7444 38.7565 49.8202 37.6475C48.896 36.5386 48.2725 35.163 47.2598 34.1429C46.8378 33.7371 46.384 33.3628 45.9023 33.0233C45.6038 32.8117 45.2832 32.5726 44.9184 32.562C44.3281 32.545 43.866 33.0995 43.2977 33.2625C42.9239 33.343 42.5345 33.3292 42.1679 33.2223C40.702 32.9006 39.2936 32.3059 37.7968 32.1493C36.996 32.0546 36.1831 32.1423 35.4244 32.4054C34.6727 32.6784 34.33 33.2223 33.7219 33.6582C33.0586 34.1259 31.763 34.1154 30.9914 34.1979C30.055 34.3003 29.1121 34.3378 28.1701 34.3101C27.6288 34.2651 27.0837 34.2843 26.5473 34.3672C25.4263 34.6021 24.5264 35.455 23.6862 36.2719C23.4569 36.4567 23.2919 36.704 23.2131 36.9809C23.2023 37.0589 23.2023 37.1378 23.2131 37.2158C23.2046 37.4292 23.2431 37.6419 23.3259 37.8401C23.5845 38.5747 23.9499 39.2708 24.4115 39.9078C24.7542 40.3776 25.1543 40.8199 25.3489 41.3765C25.4411 41.6501 25.4896 41.9356 25.4926 42.2231C25.4831 42.5283 25.4498 42.8325 25.3931 43.1331C25.2448 43.964 25.0008 44.7767 24.6657 45.5563C24.4577 45.9565 24.3145 46.3846 24.2412 46.8261C24.2349 46.9163 24.2349 47.0068 24.2412 47.097C24.1859 48.4938 25.6585 49.499 25.9437 50.8873C25.9671 51.0025 25.9812 51.1193 25.9857 51.2365C25.9547 52.1021 25.4396 52.9487 24.679 53.2851C24.7453 53.3105 24.8139 53.3317 24.8824 53.3529C24.817 53.3922 24.749 53.4275 24.679 53.4587C24.8183 53.5095 24.9598 53.5539 25.1035 53.5899C24.2391 54.3106 23.5126 55.17 22.9566 56.1295C20.3985 60.6881 3.07317 69.6169 3.07317 69.6169L3.32965 69.7566L3.12181 69.8857C1.62276 70.8402 -1.89493 73.6232 1.28448 77.1426C1.28448 77.1426 3.76742 73.3925 5.50747 71.7946C5.58486 71.7227 5.66224 71.6571 5.72857 71.5957C5.7668 71.6521 5.79243 71.7154 5.80384 71.7817C5.81526 71.8479 5.81221 71.9158 5.7949 71.9809L17.1859 65.8541C17.1859 65.8541 21.2343 63.1409 22.3641 62.5293C23.1593 62.0551 24.0247 61.6984 24.931 61.4711L24.7984 61.5241C25.2243 61.4119 25.6634 61.3522 26.1051 61.3463C28.1215 61.3759 30.306 62.7896 31.0245 68.3873C31.9885 75.8834 31.5419 77.2357 31.2324 77.4199C31.1942 77.4172 31.1564 77.4108 31.1196 77.4008C31.1292 77.4088 31.1395 77.4159 31.1506 77.422C31.1086 77.4192 31.0671 77.4121 31.0267 77.4008C31.049 77.4204 31.0762 77.4342 31.1056 77.4408C31.135 77.4475 31.1657 77.4468 31.1948 77.4389C31.2157 77.445 31.2377 77.4468 31.2594 77.4442C31.2811 77.4417 31.302 77.4348 31.3208 77.4241C31.3716 77.4269 31.4226 77.4269 31.4734 77.4241C31.4734 77.4932 31.4682 77.5638 31.4579 77.6357C31.4424 77.6357 31.3672 77.6759 31.4579 77.6802C31.4336 78.1034 31.4358 78.5627 31.4579 79.0431C30.4563 79.096 29.4547 79.1531 28.5836 79.2039L28.661 78.8082L28.6964 78.6304C29.4658 78.5712 30.1954 78.3553 30.2816 77.7585C30.4696 76.4464 28.588 75.7458 26.9873 75.6591C25.3865 75.5723 15.7864 76.1839 15.7864 76.1839C15.7864 76.1839 14.347 77.968 18.9127 78.5119C19.0483 78.5796 19.1891 78.6502 19.335 78.7235C21.1237 79.6992 23.5492 81.4959 24.7121 82.3806L24.8736 82.5033L24.3518 82.9096C27.1752 83.5213 29.9058 93.849 31.4115 98.5705C32.9171 103.292 36.2115 103.121 38.9421 102.42C41.5002 101.764 41.8164 94.6532 41.8584 93.7601V93.6691L46.4086 99.0488L46.7535 99.4573C46.8862 99.5236 47.0174 99.5857 47.1471 99.6435C50.5918 101.212 54.3969 98.2044 53.3158 94.776C52.2213 91.32 50.5233 86.209 49.3912 84.0482C48.4427 82.2388 47.2178 79.2336 46.4749 77.3521C46.5714 77.3151 46.6652 77.2719 46.7557 77.223C46.7557 77.223 46.738 77.1384 46.7093 76.9839L46.7557 76.9606C46.7557 76.9606 45.6502 71.5174 45.6016 67.6487C45.6016 67.581 45.6016 67.5105 45.6016 67.4371C45.6016 67.3948 45.6016 67.3524 45.6016 67.3122C46.4241 67.1323 46.9459 67.0625 46.9459 67.0625L46.9614 66.8932L46.8663 66.9123L47.324 61.8986C47.324 61.8986 49.0043 58.4765 47.7175 57.0522C47.3263 56.6357 47.0651 56.1224 46.9636 55.5708C46.7425 54.2608 46.9636 52.0746 49.9595 50.2588C54.5716 47.4589 56.3713 45.1796 56.3713 45.1796C56.3713 45.1796 56.4509 43.5458 53.6275 42.75ZM44.4674 46.2293V43.9119C45.323 43.8717 46.1964 43.9669 47.0564 43.9119C47.4786 43.8837 47.897 43.8163 48.3056 43.7108L48.5135 43.8484C47.2552 44.7748 45.8991 45.5728 44.4674 46.2293ZM31.3893 82.5541C31.7276 82.7784 32.0681 83.0112 32.402 83.2462C32.6098 84.389 32.7933 85.1953 32.8066 85.2524C32.425 84.3118 31.9505 83.4083 31.3893 82.5541Z" fill="url(#paint2_linear)"/>
<path d="M38.6987 80.6494L38.4997 81.6843L38.3471 82.4758L38.0686 83.9234L35.3667 85.7329C35.3667 85.7329 35.1235 85.5339 34.7211 85.2186C33.6156 84.3467 31.2874 82.5774 29.5784 81.6208C29.1391 81.3524 28.6639 81.1423 28.1655 80.9965L38.6987 80.6494Z" fill="#FFBDC6"/>
<path opacity="0.1" d="M38.6988 80.6494L38.4998 81.6843C37.9043 81.716 37.3069 81.6869 36.7178 81.5975L30.4142 81.6843C30.1158 81.6674 29.8372 81.6441 29.5763 81.6187C29.1371 81.3503 28.6618 81.1402 28.1635 80.9944L38.6988 80.6494Z" fill="black"/>
<path d="M36.7182 81.4283C36.7182 81.4283 39.8711 81.9447 40.0502 80.6516C40.2293 79.3585 38.4295 78.6771 36.9017 78.5797C35.3739 78.4824 26.1828 79.1004 26.1828 79.1004C26.1828 79.1004 24.5622 81.168 30.4147 81.513L36.7182 81.4283Z" fill="#7679B4"/>
<path opacity="0.1" d="M38.6987 80.6494L38.4997 81.6843L38.3471 82.4758L38.0686 83.9234L35.3667 85.7329C35.3667 85.7329 35.1235 85.5339 34.7211 85.2186C33.6156 84.3467 31.2874 82.5774 29.5784 81.6208C29.1391 81.3524 28.6639 81.1423 28.1655 80.9965L38.6987 80.6494Z" fill="black"/>
<path opacity="0.1" d="M38.6988 80.6494L38.4998 81.6843C37.9043 81.716 37.3069 81.6869 36.7178 81.5975L30.4142 81.6843C30.1158 81.6674 29.8372 81.6441 29.5763 81.6187C29.1371 81.3503 28.6618 81.1402 28.1635 80.9944L38.6988 80.6494Z" fill="black"/>
<path opacity="0.1" d="M36.7182 81.4283C36.7182 81.4283 39.8711 81.9447 40.0502 80.6516C40.2293 79.3585 38.4295 78.6771 36.9017 78.5797C35.3739 78.4824 26.1828 79.1004 26.1828 79.1004C26.1828 79.1004 24.5622 81.168 30.4147 81.513L36.7182 81.4283Z" fill="black"/>
<path d="M43.6055 38.9297H27.127V57.6339H43.6055V38.9297Z" fill="#A66477"/>
<path opacity="0.1" d="M43.6055 38.9297H27.127V57.6339H43.6055V38.9297Z" fill="black"/>
<path d="M7.81133 70.9523C7.53938 71.0179 7.19446 71.2677 6.80754 71.6317C5.14266 73.2062 2.76806 76.8992 2.76806 76.8992C-0.274264 73.4327 3.09308 70.692 4.53685 69.7502C4.88619 69.5217 5.12055 69.3989 5.12055 69.3989L7.81133 70.9523Z" fill="#FFBDC6"/>
<path d="M38.5196 44.8345C38.5196 44.8345 39.331 50.265 42.1213 51.5581C44.9115 52.8512 38.5196 55.2638 38.5196 55.2638L29.7839 52.1612C29.7839 52.1612 34.7366 50.61 33.746 46.0408L38.5196 44.8345Z" fill="#FFBDC6"/>
<path d="M29.1633 77.5024L28.9643 78.5373L28.8117 79.3288L28.5332 80.7764L25.8313 82.5859C25.8313 82.5859 25.5881 82.387 25.1857 82.0716C24.0802 81.1997 21.752 79.4304 20.043 78.4738C19.6037 78.2054 19.1285 77.9954 18.6301 77.8495L29.1633 77.5024Z" fill="#FFBDC6"/>
<path opacity="0.1" d="M29.1628 77.5024L28.9638 78.5373C28.3683 78.569 27.7709 78.54 27.1818 78.4506L20.8782 78.5373C20.5797 78.5204 20.3012 78.4971 20.0403 78.4717C19.6011 78.2033 19.1258 77.9933 18.6274 77.8474L29.1628 77.5024Z" fill="black"/>
<path d="M27.1733 78.2793C27.1733 78.2793 30.3262 78.7957 30.5052 77.5026C30.6843 76.2095 28.8846 75.5196 27.3524 75.4349C25.8202 75.3503 16.6357 75.9513 16.6357 75.9513C16.6357 75.9513 15.015 78.019 20.8675 78.3639L27.1733 78.2793Z" fill="#7679B4"/>
<path opacity="0.1" d="M28.8031 79.3309L28.5246 80.7785L25.8227 82.5879C25.8227 82.5879 25.5795 82.389 25.1771 82.0737L28.7501 79.2695L28.8031 79.3309Z" fill="black"/>
<path d="M46.6299 99.0635C46.506 99.0057 46.3808 98.9443 46.254 98.8794L45.9246 98.4773L41.5733 93.1864V93.2795C41.5446 94.1578 41.2306 101.163 38.7853 101.808C36.1741 102.498 33.0212 102.67 31.5819 98.0159C30.1425 93.3621 27.5291 83.191 24.8273 82.5878L28.8336 79.4408C28.8336 79.4408 31.4868 82.4037 32.5702 85.2565C32.5304 85.0745 30.6975 76.8821 32.2098 75.4346H45.3563C45.3563 75.4346 47.3816 80.9667 48.7789 83.7095C49.8623 85.8385 51.4874 90.8712 52.5376 94.2763C53.5768 97.6456 49.9463 100.608 46.6299 99.0635Z" fill="#7679B4"/>
<path opacity="0.1" d="M46.263 76.984C44.2355 78.1332 35.3208 77.6655 32.4155 77.4793L31.6262 77.4242C31.54 77.4242 31.6395 77.3777 31.6395 77.3777L31.7213 76.5946L33.8814 71.3376L45.4538 64.9209C45.2194 65.596 45.1398 66.6309 45.1597 67.8182C45.2172 71.6233 46.263 76.984 46.263 76.984Z" fill="black"/>
<path d="M46.2631 76.7278C44.2356 77.877 35.3209 77.4093 32.4156 77.2231L31.6263 77.168H31.4958L31.6396 77.1321L32.3515 76.9522L33.8815 71.0899L45.4538 64.6689C45.2195 65.3441 45.1399 66.3789 45.1598 67.5662C45.2173 71.365 46.2631 76.7278 46.2631 76.7278Z" fill="#F2F1F2"/>
<path opacity="0.1" d="M45.1588 67.5577C42.8063 68.0762 37.6282 69.6021 35.6383 73.2719C34.3117 75.7226 33.2062 76.7744 32.4169 77.2146L31.6276 77.1596L31.6408 77.113L32.3528 76.9331L33.8828 71.0709L45.4551 64.6499C45.2163 65.3441 45.1389 66.3705 45.1588 67.5577Z" fill="black"/>
<path opacity="0.1" d="M5.10946 69.4009L7.81129 70.9522C7.53934 71.0178 7.19442 71.2675 6.8075 71.6315C6.5864 70.9966 5.16694 70.1247 4.52576 69.7522C4.87509 69.5236 5.10946 69.4009 5.10946 69.4009Z" fill="black"/>
<path opacity="0.1" d="M31.1535 77.2674C31.1234 77.2835 31.0887 77.2899 31.0544 77.2857C31.0202 77.2815 30.9883 77.267 30.9634 77.2441C31.0252 77.2609 31.0893 77.2687 31.1535 77.2674Z" fill="black"/>
<path d="M37.2575 51.2134C37.2575 51.2134 34.8254 51.4716 33.1141 49.7489C33.1141 49.7489 25.9107 51.7319 23.4786 56.2143C21.0465 60.6967 4.47729 69.488 4.47729 69.488C4.47729 69.488 7.35158 71.0393 7.08848 71.816L17.9842 65.7823C17.9842 65.7823 21.8557 63.1094 22.9369 62.5062C24.018 61.9031 29.9612 58.1973 31.2215 68.2817C32.4817 78.3661 31.2215 77.1703 31.2215 77.1703C31.2215 77.1703 33.0234 77.7735 35.6434 72.9376C38.2635 68.1018 46.3601 66.9907 46.3601 66.9907L46.8023 61.9115C46.8023 61.9115 48.4097 58.5423 47.1782 57.1371C46.8026 56.7236 46.5533 56.2191 46.4574 55.6789C46.2518 54.3879 46.4574 52.2356 49.3317 50.4473C53.7537 47.6961 55.4562 45.4485 55.4562 45.4485C55.4562 45.4485 55.5468 43.8105 52.845 43.0359C50.1431 42.2613 39.1567 38.0371 39.1567 38.0371L38.7963 39.5016L47.4413 45.3639C47.4413 45.3639 43.1188 48.7246 39.7028 48.64C39.6896 48.6252 40.3197 51.1267 37.2575 51.2134Z" fill="#565388"/>
<path opacity="0.1" d="M38.9268 47.1984C38.7139 46.5038 38.5478 45.7969 38.4294 45.082L33.6558 46.2968C33.8648 47.1687 33.8274 48.0782 33.5475 48.9316C34.5231 49.1808 35.5537 49.149 36.5105 48.8403C37.4673 48.5317 38.3078 47.9598 38.9268 47.1962V47.1984Z" fill="black"/>
<path d="M34.9625 48.8429C37.7979 48.8429 40.0965 46.6428 40.0965 43.9288C40.0965 41.2148 37.7979 39.0146 34.9625 39.0146C32.1271 39.0146 29.8286 41.2148 29.8286 43.9288C29.8286 46.6428 32.1271 48.8429 34.9625 48.8429Z" fill="#FFBDC6"/>
<path opacity="0.1" d="M37.6908 32.7523C39.1147 32.9068 40.47 33.493 41.8718 33.8105C42.222 33.9156 42.5952 33.9295 42.9529 33.8507C43.4968 33.6898 43.939 33.1438 44.5006 33.1608C44.8478 33.1608 45.1639 33.3978 45.4425 33.6158C45.904 33.9509 46.3379 34.3196 46.7404 34.7184C47.7066 35.7236 48.308 37.0781 49.1901 38.1701C50.0723 39.2622 51.4631 40.1129 52.7167 39.6114C51.8655 42.7859 49.0708 45.2133 46.0505 45.4101C44.8456 45.4884 43.6185 45.2493 42.4444 45.5879C42.1535 45.7014 41.8464 45.7728 41.5335 45.7995C40.8702 45.7995 40.3219 45.2091 39.9018 44.6355C38.9201 43.2853 38.133 41.7531 37.0275 40.5235C36.6627 40.1172 36.2315 39.7299 35.7164 39.6558C35.2012 39.5817 34.7258 39.8166 34.2659 40.0452C33.5076 40.4219 32.7315 40.8113 32.1434 41.4547C31.5553 42.0981 31.1838 43.061 31.427 43.9329C31.5575 44.4027 31.8582 44.826 31.8692 45.3191C31.8692 46.1022 31.1573 46.6757 31.0136 47.4355C30.9819 47.7562 30.9701 48.0784 30.9782 48.4005C30.9141 49.446 30.2021 50.3052 29.4548 50.9592C29.1652 51.2152 28.8424 51.4883 28.7584 51.884C28.7009 52.1528 28.7584 52.4385 28.7208 52.7115C28.6124 53.3908 27.9049 53.7337 27.2792 53.8226C26.5484 53.9251 25.8023 53.8404 25.1169 53.5771C26.0013 53.1813 26.5297 52.0533 26.3263 51.0375C26.0477 49.6386 24.5796 48.6354 24.7034 47.209C24.7727 46.7722 24.9098 46.3478 25.1102 45.9498C25.4306 45.1802 25.6634 44.3799 25.8045 43.5626C25.9491 42.9335 25.9347 42.2805 25.7625 41.6579C25.5745 41.1097 25.192 40.6738 24.8648 40.2103C24.4217 39.5802 24.0719 38.8943 23.8256 38.1722C23.7364 37.9588 23.7023 37.728 23.7262 37.4993C23.7974 37.2294 23.9515 36.9862 24.1683 36.8009C24.9732 35.9945 25.8354 35.1544 26.9056 34.9216C27.4169 34.84 27.9369 34.8208 28.4533 34.8644C29.3547 34.8919 30.2571 34.8551 31.1529 34.7544C31.8913 34.6718 33.1428 34.6824 33.7663 34.221C34.3478 33.7978 34.6772 33.2581 35.3958 32.9872C36.1291 32.7302 36.9172 32.6496 37.6908 32.7523Z" fill="black"/>
<path opacity="0.1" d="M40.5446 83.4937C40.5446 83.4937 43.5161 89.0956 42.6163 90.8204L40.5446 83.4937Z" fill="black"/>
<path opacity="0.1" d="M45.9337 98.4774L41.5824 93.1865V93.2796C41.5824 93.2796 41.3304 91.5696 42.1595 92.1453C43.9747 93.4024 46.88 95.4637 46.9419 95.8192C47.0038 96.1748 46.3537 97.6012 45.9337 98.4774Z" fill="black"/>
<g opacity="0.1">
<path opacity="0.1" d="M39.7762 48.6245C39.7762 48.6245 40.1432 50.0806 38.9559 50.8086C40.7844 50.5081 40.864 49.1473 40.8087 48.5547C40.4674 48.6076 40.1219 48.6309 39.7762 48.6245Z" fill="black"/>
<path opacity="0.1" d="M5.56073 69.1425C5.56073 69.1425 22.1299 60.3512 24.562 55.8688C26.3065 52.652 30.5096 50.724 32.7427 49.8901C31.1132 50.4129 25.6299 52.417 23.5693 56.2137C21.1372 60.6962 4.56799 69.4874 4.56799 69.4874L5.56073 69.1425Z" fill="black"/>
<path opacity="0.1" d="M42.9993 47.9412C45.8184 47.0947 48.5135 45.0059 48.5135 45.0059L39.8686 39.1436L40.0654 38.3394L39.2384 38.022L38.8781 39.4865L47.523 45.3487C46.1358 46.3926 44.6157 47.2637 42.9993 47.9412Z" fill="black"/>
<path opacity="0.1" d="M43.0548 67.8056C44.1594 67.4446 45.293 67.1707 46.4443 66.9865L46.4597 66.8193C45.2998 67.0632 44.1614 67.393 43.0548 67.8056Z" fill="black"/>
<path opacity="0.1" d="M32.5764 76.8353H32.4968C32.4666 76.8513 32.4319 76.8578 32.3977 76.8536C32.3635 76.8494 32.3316 76.8348 32.3066 76.812C32.3685 76.8285 32.4325 76.8364 32.4968 76.8353C32.793 76.6702 33.2375 75.3835 32.3066 67.9339C31.3117 59.9807 27.4071 60.6051 25.269 61.5193C27.4535 60.9437 30.4604 61.441 31.3161 68.2789C32.2469 75.7284 31.8025 77.0173 31.5063 77.1802C31.8903 77.1666 32.2619 77.0467 32.5764 76.8353Z" fill="black"/>
<path opacity="0.1" d="M31.5063 77.1825C31.4421 77.1836 31.378 77.1757 31.3162 77.1592C31.3411 77.182 31.373 77.1966 31.4072 77.2008C31.4415 77.205 31.4762 77.1986 31.5063 77.1825Z" fill="black"/>
</g>
<path d="M37.6908 32.5853C39.1147 32.7398 40.47 33.326 41.8718 33.6435C42.222 33.7486 42.5952 33.7625 42.9529 33.6837C43.4968 33.5229 43.939 32.9768 44.5006 32.9938C44.8478 32.9938 45.1639 33.2308 45.4425 33.4488C45.904 33.7839 46.3379 34.1526 46.7404 34.5514C47.7066 35.5567 48.308 36.9111 49.1901 38.0031C50.0723 39.0952 51.4631 39.9459 52.7167 39.4444C51.8655 42.6189 49.0708 45.0463 46.0505 45.2431C44.8456 45.3214 43.6185 45.0823 42.4444 45.4209C42.1535 45.5344 41.8464 45.6058 41.5335 45.6325C40.8702 45.6325 40.3219 45.0421 39.9018 44.4686C38.9201 43.1183 38.133 41.5861 37.0275 40.3565C36.6627 39.9502 36.2315 39.5629 35.7164 39.4888C35.2012 39.4147 34.7258 39.6497 34.2659 39.8782C33.5076 40.2549 32.7315 40.6443 32.1434 41.2877C31.5553 41.9311 31.1838 42.894 31.427 43.7659C31.5575 44.2358 31.8582 44.659 31.8692 45.1521C31.8692 45.9352 31.1573 46.5087 31.0136 47.2685C30.9819 47.5892 30.9701 47.9114 30.9782 48.2335C30.9141 49.279 30.2021 50.1382 29.4548 50.7922C29.1652 51.0482 28.8424 51.3213 28.7584 51.717C28.7009 51.9858 28.7584 52.2715 28.7208 52.5445C28.6124 53.2238 27.9049 53.5667 27.2792 53.6556C26.5484 53.7581 25.8023 53.6734 25.1169 53.4101C26.0013 53.0143 26.5297 51.8863 26.3263 50.8705C26.0477 49.4716 24.5796 48.4684 24.7034 47.042C24.7727 46.6052 24.9098 46.1808 25.1102 45.7828C25.4306 45.0133 25.6634 44.2129 25.8045 43.3956C25.9491 42.7665 25.9347 42.1135 25.7625 41.4909C25.5745 40.9427 25.192 40.5068 24.8648 40.0433C24.4217 39.4132 24.0719 38.7273 23.8256 38.0053C23.7364 37.7919 23.7023 37.561 23.7262 37.3323C23.7974 37.0625 23.9515 36.8192 24.1683 36.6339C24.9732 35.8275 25.8354 34.9874 26.9056 34.7546C27.4169 34.673 27.9369 34.6538 28.4533 34.6974C29.3547 34.7249 30.2571 34.6881 31.1529 34.5874C31.8913 34.5048 33.1428 34.5154 33.7663 34.0541C34.3478 33.6308 34.6772 33.0911 35.3958 32.8202C36.1291 32.5632 36.9172 32.4826 37.6908 32.5853Z" fill="#A66477"/>
<path d="M184.286 21.5547C184.286 21.5272 184.286 21.5018 184.286 21.4764C184.286 21.451 184.286 21.4214 184.273 21.396H184.238C184.238 21.3388 184.238 21.2817 184.238 21.2203C184.149 19.2585 181.315 15.0829 180.178 16.302C179.183 17.3728 180.684 20.0817 181.449 21.3007L181.518 21.4108L181.48 21.3875C181.48 21.3875 178.316 30.42 177.943 30.7714C177.569 31.1227 174.965 38.2251 171.531 39.0251C170.852 39.1796 170.288 39.3192 169.815 39.4483L169.853 39.3277C170.074 38.6357 170.346 37.9817 170.456 37.2114C170.567 36.441 170.456 35.5077 170.05 35.1331C169.851 34.9469 169.607 34.9215 169.444 34.6252C169.338 34.3653 169.281 34.0894 169.276 33.8104L168.984 30.3862L169.187 30.3269C170.417 29.9502 171.608 29.0571 171.748 27.855C171.705 27.8706 171.661 27.884 171.617 27.8953C171.633 27.8254 171.646 27.7547 171.655 27.6836C170.622 28.073 169.665 27.0487 168.67 26.5895C167.032 25.8212 165.159 26.545 163.467 26.7207C161.551 26.9217 159.731 26.1599 157.772 26.2974C156.706 26.3757 155.521 27.0678 155.579 28.073C155.612 28.6254 156.021 29.0931 156.189 29.6222C156.613 30.9026 155.669 32.1872 154.842 33.2792C154.298 33.9967 153.777 34.8707 153.684 35.713C151.78 33.8083 149.722 31.6073 149.483 30.7798L143.975 21.7473C143.975 21.7473 143.845 21.8806 143.635 22.0774C143.602 21.9801 143.562 21.8658 143.518 21.7515C142.815 19.8659 140.825 15.2967 138.302 16.1348C135.779 16.9728 139.348 21.6563 140.9 23.5229L141.121 23.7811C140.991 23.8117 140.854 23.8058 140.727 23.7642L146.87 33.8485C146.87 33.8485 147.986 35.7786 149.01 36.3035C149.01 36.3035 156.64 45.5116 156.733 47.3529C156.826 49.1941 160.164 54.1061 160.164 54.1061C160.164 54.1061 161.281 62.0868 159.326 63.4899H159.351H159.366H159.39H159.413H159.457H159.485H159.514H159.552H159.583H159.627H159.649C159.556 63.5767 159.461 63.6719 159.364 63.7756C157.916 65.3121 156.065 68.6051 158.594 74.205C162.316 82.4587 162.875 85.6925 162.875 85.6925C162.875 85.6925 155.8 86.0438 154.407 86.3062C153.173 86.539 148.377 86.7019 147.281 86.7294C146.889 86.2935 145.733 85.3284 144.172 86.7294C142.218 88.4839 140.823 94.3483 140.823 94.3483C140.823 94.3483 140.077 99.0846 142.591 97.855C142.591 97.855 145.569 93.9081 146.405 93.7324C146.821 93.6456 147.261 93.0594 147.597 92.4943L147.615 92.5049C147.635 92.5049 147.716 92.4626 147.849 92.4118C148.468 92.1769 150.173 91.6118 151.517 91.8933C152.253 92.0478 155.411 92.0838 158.72 92.0753C157.973 93.7896 156.633 98.2127 156.633 98.2127C156.633 98.2127 156.074 102.337 157.931 102.168C159.258 102.043 161.292 98.7989 162.353 96.9471C163.123 96.4075 165.327 94.4731 166.956 94.6192L177.936 90.5854C177.936 90.5854 180.541 89.1823 179.146 84.5348C178.04 80.8397 174.894 73.2759 173.651 70.3278L173.614 70.2516C173.313 69.5384 173.132 69.1152 173.132 69.1152C172.621 67.7693 172.286 66.3683 172.135 64.9439C172.124 64.8317 172.115 64.7174 172.106 64.6053C172.26 64.5435 172.405 64.4631 172.537 64.3661C172.537 64.3661 171.513 54.4574 172.537 53.4035L172.555 53.3844V53.3717L172.572 53.3506L172.612 53.3019L172.661 53.2426C172.716 53.1728 172.782 53.086 172.858 52.9802C173.443 52.1591 174.536 50.284 174.222 48.0703C174.208 47.9744 174.192 47.8777 174.173 47.7804C174.053 47.18 173.838 46.6006 173.536 46.0619C173.492 45.8376 173.465 45.6106 173.455 45.3826C173.455 45.2535 173.455 45.1117 173.455 44.9593V44.9339C173.455 44.893 173.455 44.8521 173.455 44.8111V44.7815C173.455 44.682 173.472 44.5699 173.488 44.4768V44.4387C173.488 44.4006 173.494 44.3618 173.508 44.3223V44.2736C173.508 44.2355 173.525 44.1974 173.534 44.1593V44.1191C173.547 44.0683 173.561 44.0175 173.578 43.9667V43.9413C173.592 43.899 173.606 43.8574 173.623 43.8165L173.642 43.7678L173.687 43.6662L173.709 43.6154C173.726 43.5773 173.746 43.5392 173.766 43.5011L173.782 43.4694C173.808 43.4228 173.836 43.377 173.866 43.3318L173.89 43.2958L173.963 43.1964L173.998 43.1519L174.076 43.063L174.111 43.025C174.151 42.9847 174.191 42.9445 174.235 42.9064C175.444 41.8483 180.841 34.0496 180.841 34.0496C180.841 34.0496 182.144 32.2951 182.144 31.1565C182.217 31.1311 184.518 23.7874 184.286 21.5547ZM169.798 87.1083C169.665 85.9062 169.532 84.4163 169.411 82.8756L171.515 86.0162C171.515 86.0162 171.316 86.9728 169.798 87.1083Z" fill="url(#paint3_linear)"/>
<path d="M147.851 86.4437C147.851 86.4437 146.591 84.5389 144.699 86.2722C142.806 88.0055 141.457 93.7704 141.457 93.7704C141.457 93.7704 140.736 98.4264 143.169 97.2179C143.169 97.2179 146.043 93.3387 146.861 93.1673C147.679 92.9958 148.572 90.8393 148.572 90.8393L147.851 86.4437Z" fill="#493545"/>
<path d="M161.358 91.0975C161.358 91.0975 159.647 90.3208 159.107 90.9261C158.568 91.5314 156.766 97.5629 156.766 97.5629C156.766 97.5629 156.226 101.529 158.026 101.355C159.826 101.182 162.978 94.9725 162.978 94.9725L161.358 91.0975Z" fill="#493545"/>
<path opacity="0.05" d="M161.358 91.0975C161.358 91.0975 159.647 90.3208 159.107 90.9261C158.568 91.5314 156.766 97.5629 156.766 97.5629C156.766 97.5629 156.226 101.529 158.026 101.355C159.826 101.182 162.978 94.9725 162.978 94.9725L161.358 91.0975Z" fill="black"/>
<path d="M167.301 79.3753L171.173 85.1508C171.173 85.1508 170.903 86.4439 168.561 86.1857L160.547 91.013C160.547 91.013 159.85 96.8901 162.077 96.3568C162.437 96.27 164.951 93.7706 166.759 93.9442L177.388 89.9782C177.388 89.9782 179.908 88.5983 178.557 84.0312C177.206 79.4642 172.74 68.874 172.74 68.874L165.68 72.6538L167.301 79.3753Z" fill="#3E3D77"/>
<path opacity="0.05" d="M167.301 79.3753L171.173 85.1508C171.173 85.1508 170.903 86.4439 168.561 86.1857L160.547 91.013C160.547 91.013 159.85 96.8901 162.077 96.3568C162.437 96.27 164.951 93.7706 166.759 93.9442L177.388 89.9782C177.388 89.9782 179.908 88.5983 178.557 84.0312C177.206 79.4642 172.74 68.874 172.74 68.874L165.68 72.6538L167.301 79.3753Z" fill="black"/>
<path d="M169.734 87.9084C170.273 91.1845 167.213 91.4427 167.213 91.4427C167.213 91.4427 153.434 91.7009 151.813 91.3559C150.193 91.0109 148.03 91.9591 148.03 91.9591C145.238 90.321 147.491 86.2703 147.491 86.2703C147.491 86.2703 153.255 86.0989 154.606 85.8471C155.957 85.5952 162.8 85.2376 162.8 85.2376C162.8 85.2376 162.26 82.0482 158.657 73.9469C156.209 68.4444 157.993 65.2064 159.402 63.6975C159.761 63.2971 160.177 62.9466 160.638 62.6562L171.715 63.1726C171.703 63.7074 171.723 64.2423 171.777 64.7747C171.966 66.6026 172.462 68.3892 173.247 70.0655C172.617 70.0655 168.564 73.6866 168.564 73.6866C168.564 73.6866 169.192 84.6344 169.734 87.9084Z" fill="#3E3D77"/>
<path opacity="0.1" d="M148.3 86.6153C148.3 86.6153 154.064 86.4439 155.415 86.1921C156.766 85.9402 163.609 85.5889 163.609 85.5889C163.609 85.5889 163.069 82.3996 159.465 74.2982C157.018 68.7958 158.802 65.5578 160.211 64.0488C160.57 63.6484 160.986 63.2979 161.447 63.0076L171.71 63.4859C171.71 63.3843 171.71 63.2742 171.71 63.179L160.633 62.6626C160.172 62.953 159.756 63.3034 159.397 63.7038C157.995 65.2149 156.204 68.4508 158.652 73.9533C162.265 82.0483 162.8 85.2376 162.8 85.2376C162.8 85.2376 155.946 85.5825 154.606 85.8407C153.266 86.0989 147.491 86.264 147.491 86.264C147.491 86.264 145.24 90.3168 148.03 91.9612C148.03 91.9612 148.114 91.9231 148.251 91.8681C146.396 90.0417 148.3 86.6153 148.3 86.6153Z" fill="black"/>
<path d="M164.779 31.0195H159.196V44.5514H164.779V31.0195Z" fill="#493545"/>
<path opacity="0.1" d="M164.779 31.0195H159.196V44.5514H164.779V31.0195Z" fill="black"/>
<path d="M167.971 29.0343C168.163 29.0851 168.38 29.0915 168.51 29.3454C168.591 29.5484 168.636 29.7631 168.641 29.9803L168.992 34.1622C168.997 34.436 169.053 34.7068 169.156 34.9622C169.304 35.2458 169.55 35.2797 169.742 35.4617C170.129 35.8299 170.242 36.7526 170.136 37.5039C170.029 38.2552 169.762 38.8986 169.552 39.5779C169.251 40.5515 169.052 41.6456 168.63 42.4667C168.208 43.2879 167.44 43.7366 166.945 43.0466C166.45 42.3567 166.516 40.9642 166.423 39.8234C166.269 37.9187 165.492 36.2765 165.439 34.3591C165.395 32.8078 165.831 31.3602 166.103 29.8893C166.297 28.8799 166.308 27.6545 166.591 26.7466C166.828 27.8259 167.279 28.8523 167.971 29.0343Z" fill="#493545"/>
<path opacity="0.1" d="M167.971 29.0343C168.163 29.0851 168.38 29.0915 168.51 29.3454C168.591 29.5484 168.636 29.7631 168.641 29.9803L168.992 34.1622C168.997 34.436 169.053 34.7068 169.156 34.9622C169.304 35.2458 169.55 35.2797 169.742 35.4617C170.129 35.8299 170.242 36.7526 170.136 37.5039C170.029 38.2552 169.762 38.8986 169.552 39.5779C169.251 40.5515 169.052 41.6456 168.63 42.4667C168.208 43.2879 167.44 43.7366 166.945 43.0466C166.45 42.3567 166.516 40.9642 166.423 39.8234C166.269 37.9187 165.492 36.2765 165.439 34.3591C165.395 32.8078 165.831 31.3602 166.103 29.8893C166.297 28.8799 166.308 27.6545 166.591 26.7466C166.828 27.8259 167.279 28.8523 167.971 29.0343Z" fill="black"/>
<path d="M144.338 23.0892L142.178 24.814C142.178 24.814 141.921 24.5262 141.539 24.0606C140.037 22.2258 136.586 17.6227 139.025 16.7995C141.463 15.9762 143.391 20.465 144.072 22.3189C144.245 22.7887 144.338 23.0892 144.338 23.0892Z" fill="#C77485"/>
<path d="M183.331 22.4859C182.431 23.779 181.171 22.4859 181.171 22.4859C181.171 22.4859 181.01 22.2552 180.782 21.8827C180.041 20.6828 178.589 18.0225 179.551 16.9686C180.656 15.7644 183.395 19.8743 183.479 21.8023C183.505 22.0394 183.454 22.2783 183.331 22.4859Z" fill="#C77485"/>
<path d="M161.177 36.4495C161.177 36.4495 162.979 41.9668 162.437 43.6028C161.896 45.2387 166.311 47.1434 166.311 47.1434H171.354C171.354 47.1434 173.156 43.6091 172.705 42.5742C172.254 41.5393 168.383 40.7647 168.383 40.7647C168.383 40.7647 166.132 40.7647 166.222 34.9893L161.177 36.4495Z" fill="#C77485"/>
<path opacity="0.1" d="M144.338 23.0892L142.178 24.814C142.178 24.814 141.921 24.5262 141.539 24.0606C142.323 23.9273 143.542 22.831 144.075 22.3188C144.245 22.7887 144.338 23.0892 144.338 23.0892Z" fill="black"/>
<path opacity="0.1" d="M183.331 22.4858C182.431 23.7789 181.171 22.4858 181.171 22.4858C181.171 22.4858 181.009 22.2551 180.782 21.8827L180.81 21.7959C181.394 22.1959 183.209 21.8552 183.479 21.7959C183.506 22.0351 183.455 22.2764 183.331 22.4858Z" fill="black"/>
<path opacity="0.1" d="M171.772 64.7724C168.986 65.9893 159.934 63.8222 159.39 63.6931C159.749 63.2927 160.165 62.9422 160.626 62.6519L171.703 63.1682C171.693 63.7038 171.716 64.2394 171.772 64.7724Z" fill="black"/>
<path d="M162.348 41.1903C162.348 41.1903 160.188 41.8802 157.126 39.2073C157.126 39.2073 150.272 32.7419 149.83 31.1906L144.523 22.302C144.523 22.302 142.273 24.63 141.37 24.285L147.314 34.1979C147.314 34.1979 148.395 36.1026 149.385 36.6106C149.385 36.6106 156.77 45.6621 156.858 47.4716C156.947 49.2811 160.186 54.1275 160.186 54.1275C160.186 54.1275 161.267 61.9706 159.375 63.3505C159.375 63.3505 169.91 65.9367 172.161 64.2118C172.161 64.2118 171.17 54.4767 172.161 53.4376C172.161 53.4376 175.223 49.9901 173.151 46.1976C173.151 46.1976 172.709 44.1299 173.872 43.095C175.035 42.0601 180.266 34.3884 180.266 34.3884C180.266 34.3884 181.527 32.6636 181.527 31.544C181.527 31.544 183.868 23.9591 183.516 21.9761C183.516 21.9761 181.445 22.3993 180.815 21.9761C180.815 21.9761 177.752 30.8647 177.392 31.1991C177.032 31.5335 174.518 38.5258 171.179 39.3025C167.84 40.0792 167.308 40.4221 167.308 40.4221C167.308 40.4221 173.79 44.3013 170.64 46.024C167.489 47.7467 162.348 41.1903 162.348 41.1903Z" fill="#FFAAC4"/>
<path opacity="0.1" d="M166.441 37.7767C166.334 36.9648 166.29 36.1463 166.31 35.3281L161.267 36.7926C161.4 37.1142 161.506 37.4454 161.583 37.7831C162.16 38.0265 162.939 38.6021 163.609 38.6021C164.622 38.6338 165.618 38.3436 166.441 37.7767Z" fill="black"/>
<path d="M163.518 38.3457C166.104 38.3457 168.201 36.3388 168.201 33.8633C168.201 31.3877 166.104 29.3809 163.518 29.3809C160.932 29.3809 158.835 31.3877 158.835 33.8633C158.835 36.3388 160.932 38.3457 163.518 38.3457Z" fill="#C77485"/>
<path opacity="0.1" d="M157.946 26.958C156.916 27.0342 155.766 27.7157 155.824 28.704C155.855 29.2479 156.244 29.7072 156.414 30.2278C156.823 31.487 155.912 32.7505 155.112 33.8256C154.311 34.9007 153.564 36.325 154.249 37.4636C154.445 37.7377 154.656 38.0012 154.882 38.2529C155.729 39.3471 155.718 40.8243 156.093 42.1385C156.573 43.8199 157.708 45.2614 159.264 46.1667C160.82 47.0721 162.68 47.3724 164.46 47.0061C163.79 46.1873 163.455 45.1621 163.52 44.1237C163.571 43.3703 163.825 42.583 163.52 41.8867C163.127 40.9915 161.972 40.6381 161.378 39.855C160.783 39.072 160.823 37.9863 161.11 37.053C161.398 36.1197 161.895 35.2541 162.134 34.3017C162.193 34.0239 162.267 33.7491 162.355 33.4785C162.771 32.3484 164.013 31.6923 165.229 31.4108C166.445 31.1294 167.723 31.1124 168.911 30.7421C170.098 30.3717 171.252 29.504 171.389 28.3125C170.39 28.6956 169.463 27.6967 168.499 27.2374C166.912 26.484 165.101 27.193 163.465 27.3665C161.601 27.5654 159.832 26.8268 157.946 26.958Z" fill="black"/>
<path d="M157.856 26.7867C156.826 26.8629 155.676 27.5443 155.733 28.5326C155.764 29.0765 156.154 29.5358 156.324 30.0564C156.733 31.3156 155.822 32.5791 155.022 33.6542C154.221 34.7293 153.474 36.1536 154.159 37.2922C154.355 37.5663 154.566 37.8298 154.792 38.0816C155.638 39.1757 155.627 40.6529 156.003 41.9672C156.483 43.6485 157.618 45.09 159.174 45.9953C160.73 46.9007 162.589 47.201 164.37 46.8347C163.699 46.0159 163.365 44.9907 163.43 43.9523C163.481 43.1989 163.735 42.4116 163.43 41.7153C163.036 40.8201 161.882 40.4667 161.287 39.6836C160.693 38.9006 160.733 37.8149 161.02 36.8816C161.307 35.9483 161.805 35.0827 162.044 34.1304C162.103 33.8525 162.176 33.5777 162.265 33.3071C162.68 32.177 163.923 31.5209 165.139 31.2394C166.355 30.958 167.633 30.941 168.82 30.5707C170.008 30.2003 171.162 29.3326 171.299 28.1411C170.299 28.5242 169.373 27.5253 168.409 27.066C166.822 26.3126 165.011 27.0216 163.375 27.1951C161.515 27.3919 159.753 26.6449 157.856 26.7867Z" fill="#493545"/>
<path opacity="0.1" d="M168.156 43.8208C168.156 43.8208 170.031 45.4229 170.401 46.1297L168.156 43.8208Z" fill="black"/>
<path opacity="0.1" d="M172.214 53.3887C172.214 53.3887 169.873 53.3887 168.791 53.6469C167.71 53.9051 165.099 53.6469 165.099 53.6469" fill="black"/>
<g opacity="0.1">
<path opacity="0.1" d="M170.634 46.0175C170.432 46.128 170.213 46.208 169.986 46.2545C170.573 46.3791 171.188 46.2949 171.715 46.0175C174.868 44.2927 168.383 40.4155 168.383 40.4155H167.302C167.302 40.4155 173.786 44.2948 170.634 46.0175Z" fill="black"/>
<path opacity="0.1" d="M183.532 22.1263C183.532 22.0713 183.519 22.0184 183.51 21.9697C183.14 22.0432 182.766 22.0976 182.389 22.1327C182.769 22.1727 183.153 22.1706 183.532 22.1263Z" fill="black"/>
<path opacity="0.1" d="M160.458 63.3443C162.349 61.9644 161.27 54.1213 161.27 54.1213C161.27 54.1213 158.028 49.2939 157.938 47.4844C157.847 45.675 150.464 36.6234 150.464 36.6234C149.474 36.107 148.393 34.2108 148.393 34.2108C148.393 34.2108 142.268 24.6428 141.368 24.2979L147.312 34.2108C147.312 34.2108 148.393 36.1155 149.383 36.6234C149.383 36.6234 156.768 45.675 156.856 47.4844C156.945 49.2939 160.186 54.1276 160.186 54.1276C160.186 54.1276 161.267 61.9708 159.375 63.3506C159.375 63.3506 165.851 64.94 169.733 64.7961C165.842 64.6649 160.458 63.3443 160.458 63.3443Z" fill="black"/>
<path opacity="0.1" d="M162.402 41.258L162.349 41.1924C162.287 41.2098 162.225 41.2233 162.161 41.2326C162.245 41.2432 162.325 41.2516 162.402 41.258Z" fill="black"/>
</g>
<g opacity="0.1">
<path opacity="0.1" d="M183.51 21.9595L183.455 21.9701C183.36 24.6176 181.441 30.8375 181.441 30.8375C181.441 31.9571 180.181 33.6819 180.181 33.6819C180.181 33.6819 174.958 41.3536 173.786 42.3885C172.615 43.4234 173.066 45.491 173.066 45.491L173.077 45.5122C173.041 44.8159 173.13 43.7366 173.875 43.0763C175.044 42.0414 180.269 34.3697 180.269 34.3697C180.269 34.3697 181.529 32.6449 181.529 31.5253C181.529 31.538 183.871 23.9531 183.51 21.9595Z" fill="black"/>
<path opacity="0.1" d="M172.075 52.7416C172.21 53.4739 172.119 52.6993 172.165 53.4315C172.165 53.4315 174.376 50.9491 173.773 47.8804C173.954 50.6231 172.075 52.7416 172.075 52.7416Z" fill="black"/>
</g>
<path opacity="0.1" d="M103.87 140C156.093 140 198.428 136.108 198.428 131.306C198.428 126.505 156.093 122.612 103.87 122.612C51.6478 122.612 9.31299 126.505 9.31299 131.306C9.31299 136.108 51.6478 140 103.87 140Z" fill="#0652DD"/>
<path d="M67.2166 122.485C67.2166 122.485 63.9974 112.02 67.8202 104.319C69.4461 101.098 69.9364 97.459 69.2176 93.9486C68.8625 92.2846 68.3489 90.6553 67.6831 89.0811" stroke="#535461" stroke-width="2" stroke-miterlimit="10"/>
<path d="M70.0666 84.2176C70.0666 85.5001 67.6345 89.2185 67.6345 89.2185C67.6345 89.2185 65.2024 85.5001 65.2024 84.2176C65.1777 83.8982 65.2221 83.5775 65.3328 83.2753C65.4435 82.9732 65.6182 82.6961 65.8458 82.4615C66.0735 82.2269 66.3492 82.0398 66.6558 81.9118C66.9625 81.7838 67.2934 81.7178 67.6279 81.7178C67.9624 81.7178 68.2933 81.7838 68.6 81.9118C68.9066 82.0398 69.1823 82.2269 69.41 82.4615C69.6376 82.6961 69.8122 82.9732 69.9229 83.2753C70.0336 83.5775 70.078 83.8982 70.0534 84.2176H70.0666Z" fill="#0652DD"/>
<path d="M74.0702 91.3201C73.3428 92.3973 69.1949 94.2555 69.1949 94.2555C69.1949 94.2555 69.2701 89.8725 69.9975 88.7953C70.1589 88.5157 70.3786 88.2708 70.6431 88.0759C70.9076 87.8811 71.2111 87.7404 71.5349 87.6627C71.8586 87.585 72.1956 87.5719 72.5248 87.6242C72.8541 87.6765 73.1685 87.7931 73.4487 87.9668C73.7288 88.1404 73.9686 88.3674 74.1531 88.6336C74.3376 88.8998 74.4629 89.1995 74.5212 89.5141C74.5795 89.8286 74.5696 90.1513 74.492 90.462C74.4144 90.7727 74.2708 91.0648 74.0702 91.3201Z" fill="#0652DD"/>
<path d="M73.8954 103.462C72.6993 104.039 68.1469 103.639 68.1469 103.639C68.1469 103.639 70.5237 99.8913 71.7198 99.3136C72.0066 99.1488 72.3257 99.0424 72.6574 99.001C72.989 98.9596 73.326 98.9841 73.6473 99.0731C73.9686 99.162 74.2673 99.3134 74.5247 99.5178C74.7821 99.7222 74.9927 99.9753 75.1433 100.261C75.2939 100.547 75.3813 100.859 75.4 101.179C75.4187 101.499 75.3684 101.819 75.2521 102.119C75.1358 102.419 74.9561 102.693 74.7242 102.924C74.4923 103.154 74.2132 103.337 73.9043 103.459L73.8954 103.462Z" fill="#0652DD"/>
<path d="M71.6027 112.617C70.5259 113.379 65.958 113.724 65.958 113.724C65.958 113.724 67.6384 109.645 68.7173 108.881C69.2365 108.579 69.8551 108.474 70.4512 108.587C71.0472 108.7 71.5777 109.022 71.9381 109.49C72.2986 109.958 72.4629 110.538 72.3988 111.117C72.3347 111.695 72.0467 112.229 71.5916 112.615L71.6027 112.617Z" fill="#0652DD"/>
<path d="M64.0963 94.5049C65.0581 95.398 69.5354 96.3249 69.5354 96.3249C69.5354 96.3249 68.4299 92.069 67.4769 91.1738C67.2546 90.9352 66.9833 90.743 66.6799 90.6092C66.3766 90.4754 66.0477 90.4028 65.7137 90.396C65.3798 90.3892 65.0479 90.4484 64.7389 90.5697C64.4299 90.6911 64.1503 90.8721 63.9176 91.1014C63.6848 91.3307 63.5039 91.6035 63.3862 91.9027C63.2684 92.2019 63.2163 92.5211 63.233 92.8404C63.2498 93.1597 63.3351 93.4723 63.4837 93.7587C63.6322 94.045 63.8407 94.299 64.0963 94.5049Z" fill="#0652DD"/>
<path d="M61.561 105.247C62.7572 105.825 67.3096 105.425 67.3096 105.425C67.3096 105.425 64.9416 101.677 63.7455 101.11C63.1784 100.885 62.5431 100.873 61.9674 101.077C61.3916 101.282 60.9179 101.687 60.6414 102.212C60.3649 102.737 60.306 103.342 60.4766 103.907C60.6472 104.471 61.0346 104.953 61.561 105.256V105.247Z" fill="#0652DD"/>
<path d="M60.5878 116.011C61.6645 116.773 66.2324 117.118 66.2324 117.118C66.2324 117.118 64.5521 113.04 63.4731 112.276C63.2202 112.062 62.9235 111.901 62.6019 111.802C62.2803 111.704 61.9408 111.671 61.6051 111.705C61.2693 111.739 60.9447 111.84 60.6518 112C60.3589 112.161 60.1042 112.379 59.9039 112.639C59.7036 112.899 59.5621 113.196 59.4884 113.512C59.4147 113.827 59.4103 114.154 59.4757 114.471C59.5411 114.788 59.6747 115.088 59.868 115.353C60.0614 115.618 60.3103 115.842 60.5988 116.009L60.5878 116.011Z" fill="#0652DD"/>
<path opacity="0.1" d="M70.0666 84.2176C70.0666 85.5001 67.6345 89.2185 67.6345 89.2185C67.6345 89.2185 65.2024 85.5001 65.2024 84.2176C65.1777 83.8982 65.2221 83.5775 65.3328 83.2753C65.4435 82.9732 65.6182 82.6961 65.8458 82.4615C66.0735 82.2269 66.3492 82.0398 66.6558 81.9118C66.9625 81.7838 67.2934 81.7178 67.6279 81.7178C67.9624 81.7178 68.2933 81.7838 68.6 81.9118C68.9066 82.0398 69.1823 82.2269 69.41 82.4615C69.6376 82.6961 69.8122 82.9732 69.9229 83.2753C70.0336 83.5775 70.078 83.8982 70.0534 84.2176H70.0666Z" fill="#0652DD"/>
<path opacity="0.1" d="M74.0702 91.3201C73.3428 92.3973 69.1949 94.2555 69.1949 94.2555C69.1949 94.2555 69.2701 89.8725 69.9975 88.7953C70.1589 88.5157 70.3786 88.2708 70.6431 88.0759C70.9076 87.8811 71.2111 87.7404 71.5349 87.6627C71.8586 87.585 72.1956 87.5719 72.5248 87.6242C72.8541 87.6765 73.1685 87.7931 73.4487 87.9668C73.7288 88.1404 73.9686 88.3674 74.1531 88.6336C74.3376 88.8998 74.4629 89.1995 74.5212 89.5141C74.5795 89.8286 74.5696 90.1513 74.492 90.462C74.4144 90.7727 74.2708 91.0648 74.0702 91.3201Z" fill="#0652DD"/>
<path opacity="0.1" d="M73.8954 103.462C72.6993 104.039 68.1469 103.639 68.1469 103.639C68.1469 103.639 70.5237 99.8913 71.7198 99.3136C72.0066 99.1488 72.3257 99.0424 72.6574 99.001C72.989 98.9596 73.326 98.9841 73.6473 99.0731C73.9686 99.162 74.2673 99.3134 74.5247 99.5178C74.7821 99.7222 74.9927 99.9753 75.1433 100.261C75.2939 100.547 75.3813 100.859 75.4 101.179C75.4187 101.499 75.3684 101.819 75.2521 102.119C75.1358 102.419 74.9561 102.693 74.7242 102.924C74.4923 103.154 74.2132 103.337 73.9043 103.459L73.8954 103.462Z" fill="#0652DD"/>
<path opacity="0.1" d="M71.6027 112.617C70.5259 113.379 65.958 113.724 65.958 113.724C65.958 113.724 67.6384 109.645 68.7173 108.881C69.2365 108.579 69.8551 108.474 70.4512 108.587C71.0472 108.7 71.5777 109.022 71.9381 109.49C72.2986 109.958 72.4629 110.538 72.3988 111.117C72.3347 111.695 72.0467 112.229 71.5916 112.615L71.6027 112.617Z" fill="#0652DD"/>
<path opacity="0.1" d="M64.0963 94.5049C65.0581 95.398 69.5354 96.3249 69.5354 96.3249C69.5354 96.3249 68.4299 92.069 67.4769 91.1738C67.2546 90.9352 66.9833 90.743 66.6799 90.6092C66.3766 90.4754 66.0477 90.4028 65.7137 90.396C65.3798 90.3892 65.0479 90.4484 64.7389 90.5697C64.4299 90.6911 64.1503 90.8721 63.9176 91.1014C63.6848 91.3307 63.5039 91.6035 63.3862 91.9027C63.2684 92.2019 63.2163 92.5211 63.233 92.8404C63.2498 93.1597 63.3351 93.4723 63.4837 93.7587C63.6322 94.045 63.8407 94.299 64.0963 94.5049Z" fill="#0652DD"/>
<path opacity="0.1" d="M61.561 105.247C62.7572 105.825 67.3096 105.425 67.3096 105.425C67.3096 105.425 64.9416 101.677 63.7455 101.11C63.1784 100.885 62.5431 100.873 61.9674 101.077C61.3916 101.282 60.9179 101.687 60.6414 102.212C60.3649 102.737 60.306 103.342 60.4766 103.907C60.6472 104.471 61.0346 104.953 61.561 105.256V105.247Z" fill="#0652DD"/>
<path opacity="0.1" d="M60.5878 116.011C61.6645 116.773 66.2324 117.118 66.2324 117.118C66.2324 117.118 64.5521 113.04 63.4731 112.276C63.2202 112.062 62.9235 111.901 62.6019 111.802C62.2803 111.704 61.9408 111.671 61.6051 111.705C61.2693 111.739 60.9447 111.84 60.6518 112C60.3589 112.161 60.1042 112.379 59.9039 112.639C59.7036 112.899 59.5621 113.196 59.4884 113.512C59.4147 113.827 59.4103 114.154 59.4757 114.471C59.5411 114.788 59.6747 115.088 59.868 115.353C60.0614 115.618 60.3103 115.842 60.5988 116.009L60.5878 116.011Z" fill="#0652DD"/>
<path d="M132.361 122.636C132.361 122.636 129.142 112.17 132.964 104.469C134.59 101.248 135.081 97.6094 134.362 94.099C134.007 92.435 133.493 90.8057 132.827 89.2314" stroke="#535461" stroke-width="2" stroke-miterlimit="10"/>
<path d="M135.207 84.3656C135.207 85.6481 132.775 89.3665 132.775 89.3665C132.775 89.3665 130.343 85.6481 130.343 84.3656C130.388 83.7796 130.663 83.2316 131.113 82.8316C131.563 82.4317 132.154 82.2095 132.768 82.2095C133.382 82.2095 133.973 82.4317 134.423 82.8316C134.873 83.2316 135.148 83.7796 135.194 84.3656H135.207Z" fill="#0652DD"/>
<path d="M139.218 91.4681C138.49 92.5453 134.342 94.4034 134.342 94.4034C134.342 94.4034 134.417 90.0205 135.145 88.9433C135.306 88.6636 135.526 88.4188 135.79 88.2239C136.055 88.0291 136.358 87.8884 136.682 87.8107C137.006 87.7329 137.343 87.7198 137.672 87.7721C138.001 87.8245 138.316 87.9411 138.596 88.1147C138.876 88.2884 139.116 88.5154 139.3 88.7816C139.485 89.0478 139.61 89.3475 139.669 89.662C139.727 89.9766 139.717 90.2993 139.639 90.61C139.562 90.9207 139.418 91.2128 139.218 91.4681Z" fill="#0652DD"/>
<path d="M139.049 103.609C137.853 104.187 133.3 103.787 133.3 103.787C133.3 103.787 135.677 100.039 136.873 99.4614C137.16 99.2951 137.48 99.1874 137.813 99.1452C138.146 99.103 138.484 99.1271 138.806 99.2161C139.129 99.305 139.428 99.4569 139.687 99.6621C139.945 99.8673 140.156 100.121 140.306 100.408C140.457 100.696 140.544 101.009 140.561 101.33C140.579 101.651 140.527 101.972 140.409 102.272C140.291 102.573 140.109 102.847 139.875 103.077C139.641 103.307 139.36 103.488 139.049 103.609Z" fill="#0652DD"/>
<path d="M136.747 112.765C135.671 113.527 131.103 113.872 131.103 113.872C131.103 113.872 132.783 109.793 133.862 109.029C134.381 108.727 135 108.622 135.596 108.735C136.192 108.848 136.722 109.17 137.083 109.638C137.443 110.106 137.608 110.686 137.544 111.265C137.479 111.843 137.192 112.377 136.736 112.763L136.747 112.765Z" fill="#0652DD"/>
<path d="M129.246 94.6533C130.208 95.5464 134.685 96.4734 134.685 96.4734C134.685 96.4734 133.579 92.2174 132.626 91.3222C132.404 91.0836 132.133 90.8914 131.829 90.7576C131.526 90.6238 131.197 90.5513 130.863 90.5445C130.529 90.5377 130.197 90.5968 129.888 90.7182C129.579 90.8395 129.3 91.0205 129.067 91.2498C128.834 91.4792 128.653 91.7519 128.536 92.0511C128.418 92.3503 128.366 92.6695 128.382 92.9888C128.399 93.3082 128.485 93.6207 128.633 93.9071C128.782 94.1935 128.99 94.4475 129.246 94.6533Z" fill="#0652DD"/>
<path d="M126.706 105.396C127.902 105.974 132.454 105.574 132.454 105.574C132.454 105.574 130.078 101.826 128.881 101.248C128.314 101.022 127.679 101.011 127.103 101.215C126.527 101.419 126.054 101.825 125.777 102.349C125.501 102.874 125.442 103.48 125.612 104.044C125.783 104.609 126.17 105.091 126.697 105.394L126.706 105.396Z" fill="#0652DD"/>
<path d="M125.735 116.159C126.812 116.921 131.379 117.266 131.379 117.266C131.379 117.266 129.699 113.188 128.62 112.424C128.101 112.122 127.482 112.017 126.886 112.13C126.29 112.242 125.76 112.564 125.399 113.032C125.039 113.5 124.875 114.081 124.939 114.659C125.003 115.237 125.291 115.772 125.746 116.157L125.735 116.159Z" fill="#0652DD"/>
<path opacity="0.1" d="M135.207 84.3656C135.207 85.6481 132.775 89.3665 132.775 89.3665C132.775 89.3665 130.343 85.6481 130.343 84.3656C130.388 83.7796 130.663 83.2316 131.113 82.8316C131.563 82.4317 132.154 82.2095 132.768 82.2095C133.382 82.2095 133.973 82.4317 134.423 82.8316C134.873 83.2316 135.148 83.7796 135.194 84.3656H135.207Z" fill="#0652DD"/>
<path opacity="0.1" d="M139.218 91.4681C138.49 92.5453 134.342 94.4034 134.342 94.4034C134.342 94.4034 134.417 90.0205 135.145 88.9433C135.306 88.6636 135.526 88.4188 135.79 88.2239C136.055 88.0291 136.358 87.8884 136.682 87.8107C137.006 87.7329 137.343 87.7198 137.672 87.7721C138.001 87.8245 138.316 87.9411 138.596 88.1147C138.876 88.2884 139.116 88.5154 139.3 88.7816C139.485 89.0478 139.61 89.3475 139.669 89.662C139.727 89.9766 139.717 90.2993 139.639 90.61C139.562 90.9207 139.418 91.2128 139.218 91.4681Z" fill="#0652DD"/>
<path opacity="0.1" d="M139.049 103.609C137.853 104.187 133.3 103.787 133.3 103.787C133.3 103.787 135.677 100.039 136.873 99.4614C137.16 99.2951 137.48 99.1874 137.813 99.1452C138.146 99.103 138.484 99.1271 138.806 99.2161C139.129 99.305 139.428 99.4569 139.687 99.6621C139.945 99.8673 140.156 100.121 140.306 100.408C140.457 100.696 140.544 101.009 140.561 101.33C140.579 101.651 140.527 101.972 140.409 102.272C140.291 102.573 140.109 102.847 139.875 103.077C139.641 103.307 139.36 103.488 139.049 103.609Z" fill="#0652DD"/>
<path opacity="0.1" d="M136.747 112.765C135.671 113.527 131.103 113.872 131.103 113.872C131.103 113.872 132.783 109.793 133.862 109.029C134.381 108.727 135 108.622 135.596 108.735C136.192 108.848 136.722 109.17 137.083 109.638C137.443 110.106 137.608 110.686 137.544 111.265C137.479 111.843 137.192 112.377 136.736 112.763L136.747 112.765Z" fill="#0652DD"/>
<path opacity="0.1" d="M129.246 94.6533C130.208 95.5464 134.685 96.4734 134.685 96.4734C134.685 96.4734 133.579 92.2174 132.626 91.3222C132.404 91.0836 132.133 90.8914 131.829 90.7576C131.526 90.6238 131.197 90.5513 130.863 90.5445C130.529 90.5377 130.197 90.5968 129.888 90.7182C129.579 90.8395 129.3 91.0205 129.067 91.2498C128.834 91.4792 128.653 91.7519 128.536 92.0511C128.418 92.3503 128.366 92.6695 128.382 92.9888C128.399 93.3082 128.485 93.6207 128.633 93.9071C128.782 94.1935 128.99 94.4475 129.246 94.6533Z" fill="#0652DD"/>
<path opacity="0.1" d="M126.706 105.396C127.902 105.974 132.454 105.574 132.454 105.574C132.454 105.574 130.078 101.826 128.881 101.248C128.314 101.022 127.679 101.011 127.103 101.215C126.527 101.419 126.054 101.825 125.777 102.349C125.501 102.874 125.442 103.48 125.612 104.044C125.783 104.609 126.17 105.091 126.697 105.394L126.706 105.396Z" fill="#0652DD"/>
<path opacity="0.1" d="M125.735 116.159C126.812 116.921 131.379 117.266 131.379 117.266C131.379 117.266 129.699 113.188 128.62 112.424C128.101 112.122 127.482 112.017 126.886 112.13C126.29 112.242 125.76 112.564 125.399 113.032C125.039 113.5 124.875 114.081 124.939 114.659C125.003 115.237 125.291 115.772 125.746 116.157L125.735 116.159Z" fill="#0652DD"/>
<path opacity="0.5" d="M148.115 3.24023H146.726C146.858 3.24623 146.989 3.22662 147.112 3.18259C147.236 3.13856 147.349 3.07102 147.444 2.98405C147.539 2.89709 147.615 2.79252 147.667 2.67667C147.719 2.56083 147.745 2.43612 147.745 2.31009C147.745 2.18407 147.719 2.05936 147.667 1.94352C147.615 1.82767 147.539 1.7231 147.444 1.63614C147.349 1.54917 147.236 1.48163 147.112 1.4376C146.989 1.39357 146.858 1.37396 146.726 1.37996H135.468C135.218 1.39137 134.983 1.49434 134.81 1.66753C134.638 1.84071 134.541 2.07081 134.541 2.31009C134.541 2.54938 134.638 2.77948 134.81 2.95266C134.983 3.12585 135.218 3.22882 135.468 3.24023H136.856C136.607 3.25163 136.371 3.35461 136.199 3.52779C136.026 3.70097 135.93 3.93107 135.93 4.17036C135.93 4.40964 136.026 4.63974 136.199 4.81292C136.371 4.9861 136.607 5.08908 136.856 5.10048H134.913C134.781 5.09448 134.65 5.11409 134.527 5.15812C134.403 5.20215 134.29 5.2697 134.195 5.35666C134.1 5.44362 134.024 5.54819 133.972 5.66404C133.92 5.77988 133.894 5.90459 133.894 6.03062C133.894 6.15664 133.92 6.28135 133.972 6.39719C134.024 6.51304 134.1 6.61761 134.195 6.70457C134.29 6.79153 134.403 6.85908 134.527 6.90311C134.65 6.94714 134.781 6.96675 134.913 6.96075H146.162C146.294 6.96675 146.425 6.94714 146.549 6.90311C146.672 6.85908 146.785 6.79153 146.88 6.70457C146.975 6.61761 147.051 6.51304 147.103 6.39719C147.155 6.28135 147.182 6.15664 147.182 6.03062C147.182 5.90459 147.155 5.77988 147.103 5.66404C147.051 5.54819 146.975 5.44362 146.88 5.35666C146.785 5.2697 146.672 5.20215 146.549 5.15812C146.425 5.11409 146.294 5.09448 146.162 5.10048H148.115C148.364 5.08908 148.6 4.9861 148.772 4.81292C148.945 4.63974 149.041 4.40964 149.041 4.17036C149.041 3.93107 148.945 3.70097 148.772 3.52779C148.6 3.35461 148.364 3.25163 148.115 3.24023Z" fill="#DEE3F3"/>
<path opacity="0.5" d="M83.063 8.6664H82.0061C82.1066 8.67166 82.2072 8.65725 82.3017 8.62405C82.3962 8.59086 82.4827 8.53957 82.5558 8.47331C82.6289 8.40706 82.6871 8.32724 82.7269 8.23872C82.7667 8.1502 82.7872 8.05485 82.7872 7.95849C82.7872 7.86212 82.7667 7.76677 82.7269 7.67825C82.6871 7.58973 82.6289 7.50991 82.5558 7.44366C82.4827 7.3774 82.3962 7.32611 82.3017 7.29291C82.2072 7.25971 82.1066 7.24531 82.0061 7.25057H73.4451C73.256 7.26047 73.078 7.33938 72.9477 7.47105C72.8175 7.60272 72.7449 7.77716 72.7449 7.95849C72.7449 8.13981 72.8175 8.31425 72.9477 8.44592C73.078 8.57759 73.256 8.6565 73.4451 8.6664H74.502C74.4015 8.66114 74.3009 8.67554 74.2064 8.70874C74.1119 8.74194 74.0254 8.79324 73.9523 8.85949C73.8792 8.92574 73.821 9.00556 73.7812 9.09408C73.7414 9.1826 73.7209 9.27795 73.7209 9.37432C73.7209 9.47068 73.7414 9.56603 73.7812 9.65455C73.821 9.74307 73.8792 9.82289 73.9523 9.88914C74.0254 9.9554 74.1119 10.0067 74.2064 10.0399C74.3009 10.0731 74.4015 10.0875 74.502 10.0822H73.0228C72.9223 10.077 72.8217 10.0914 72.7272 10.1246C72.6327 10.1578 72.5462 10.2091 72.4731 10.2753C72.4 10.3416 72.3418 10.4214 72.302 10.5099C72.2622 10.5984 72.2417 10.6938 72.2417 10.7901C72.2417 10.8865 72.2622 10.9819 72.302 11.0704C72.3418 11.1589 72.4 11.2387 72.4731 11.305C72.5462 11.3712 72.6327 11.4225 72.7272 11.4557C72.8217 11.4889 72.9223 11.5033 73.0228 11.4981H81.5838C81.6843 11.5033 81.7849 11.4889 81.8794 11.4557C81.9739 11.4225 82.0604 11.3712 82.1335 11.305C82.2066 11.2387 82.2648 11.1589 82.3046 11.0704C82.3444 10.9819 82.3649 10.8865 82.3649 10.7901C82.3649 10.6938 82.3444 10.5984 82.3046 10.5099C82.2648 10.4214 82.2066 10.3416 82.1335 10.2753C82.0604 10.2091 81.9739 10.1578 81.8794 10.1246C81.7849 10.0914 81.6843 10.077 81.5838 10.0822H83.063C83.2521 10.0723 83.4301 9.99342 83.5603 9.86175C83.6906 9.73008 83.7632 9.55564 83.7632 9.37432C83.7632 9.19299 83.6906 9.01855 83.5603 8.88688C83.4301 8.7552 83.2521 8.6763 83.063 8.6664Z" fill="#DEE3F3"/>
<path d="M11.2054 108.941C11.2054 108.941 15.0746 116.211 11.9218 120.187C8.76889 124.164 12.2092 135.002 12.2092 135.002" stroke="#0652DD" stroke-miterlimit="10"/>
<path d="M12.3595 106.668C12.3595 108.069 11.285 109.207 11.285 109.207C11.285 109.207 10.2104 108.071 10.2104 106.668C10.2104 105.264 11.285 104.128 11.285 104.128C11.285 104.128 12.3595 105.267 12.3595 106.668Z" fill="#0652DD"/>
<path d="M13.2105 108.941C13.2105 108.941 9.34128 116.211 12.4942 120.187C15.647 124.164 12.2067 135.002 12.2067 135.002" stroke="#0652DD" stroke-miterlimit="10"/>
<path d="M12.0652 106.668C12.0652 108.069 13.1397 109.207 13.1397 109.207C13.1397 109.207 14.2143 108.071 14.2143 106.668C14.2143 105.264 13.1397 104.128 13.1397 104.128C13.1397 104.128 12.0652 105.267 12.0652 106.668Z" fill="#0652DD"/>
<path opacity="0.1" d="M12.0652 106.668C12.0652 108.069 13.1397 109.207 13.1397 109.207C13.1397 109.207 14.2143 108.071 14.2143 106.668C14.2143 105.264 13.1397 104.128 13.1397 104.128C13.1397 104.128 12.0652 105.267 12.0652 106.668Z" fill="black"/>
<path d="M14.7911 108.941C14.7911 108.941 18.6603 116.211 15.5075 120.187C12.3546 124.164 15.7949 135.002 15.7949 135.002" stroke="#0652DD" stroke-miterlimit="10"/>
<path d="M15.9349 106.668C15.9349 108.069 14.8603 109.207 14.8603 109.207C14.8603 109.207 13.7858 108.071 13.7858 106.668C13.7858 105.264 14.8603 104.128 14.8603 104.128C14.8603 104.128 15.9349 105.267 15.9349 106.668Z" fill="#0652DD"/>
<path d="M15.3312 112.492C14.3163 113.501 12.7178 113.607 12.7178 113.607C12.7178 113.607 12.7664 112.075 13.7813 111.067C14.7961 110.06 16.3947 109.952 16.3947 109.952C16.3947 109.952 16.3394 111.48 15.3312 112.492Z" fill="#0652DD"/>
<path d="M15.4326 117.507C14.4178 118.517 12.8192 118.623 12.8192 118.623C12.8192 118.623 12.8679 117.09 13.8827 116.083C14.8975 115.076 16.4961 114.968 16.4961 114.968C16.4961 114.968 16.4474 116.496 15.4326 117.507Z" fill="#0652DD"/>
<path d="M9.92771 120.265C10.8873 121.323 10.8541 122.856 10.8541 122.856C10.8541 122.856 9.26441 122.672 8.30484 121.613C7.34527 120.555 7.37843 119.023 7.37843 119.023C7.37843 119.023 8.96814 119.207 9.92771 120.265Z" fill="#0652DD"/>
<path d="M10.8116 109.576C12.0321 110.35 12.4278 111.836 12.4278 111.836C12.4278 111.836 10.8448 112.067 9.62429 111.292C8.40382 110.517 8.00806 109.032 8.00806 109.032C8.00806 109.032 9.59776 108.797 10.8116 109.576Z" fill="#0652DD"/>
<path opacity="0.1" d="M10.8116 109.576C12.0321 110.35 12.4278 111.836 12.4278 111.836C12.4278 111.836 10.8448 112.067 9.62429 111.292C8.40382 110.517 8.00806 109.032 8.00806 109.032C8.00806 109.032 9.59776 108.797 10.8116 109.576Z" fill="black"/>
<path d="M16.7926 108.941C16.7926 108.941 12.9233 116.211 16.0762 120.187C19.2291 124.164 15.7888 135.002 15.7888 135.002" stroke="#0652DD" stroke-miterlimit="10"/>
<path d="M15.6473 106.668C15.6473 108.069 16.7219 109.207 16.7219 109.207C16.7219 109.207 17.7964 108.071 17.7964 106.668C17.7964 105.264 16.7219 104.128 16.7219 104.128C16.7219 104.128 15.6473 105.267 15.6473 106.668Z" fill="#0652DD"/>
<path opacity="0.1" d="M15.6473 106.668C15.6473 108.069 16.7219 109.207 16.7219 109.207C16.7219 109.207 17.7964 108.071 17.7964 106.668C17.7964 105.264 16.7219 104.128 16.7219 104.128C16.7219 104.128 15.6473 105.267 15.6473 106.668Z" fill="black"/>
<path d="M15.9564 112.6C14.9283 113.599 14.851 115.139 14.851 115.139C14.851 115.139 16.4495 115.053 17.4776 114.054C18.5057 113.055 18.5831 111.514 18.5831 111.514C18.5831 111.514 16.9846 111.601 15.9564 112.6Z" fill="#0652DD"/>
<path opacity="0.1" d="M15.9564 112.6C14.9283 113.599 14.851 115.139 14.851 115.139C14.851 115.139 16.4495 115.053 17.4776 114.054C18.5057 113.055 18.5831 111.514 18.5831 111.514C18.5831 111.514 16.9846 111.601 15.9564 112.6Z" fill="black"/>
<path d="M17.9713 119.543C16.9432 120.542 16.8658 122.083 16.8658 122.083C16.8658 122.083 18.4644 121.996 19.4925 120.997C20.5206 119.998 20.598 118.458 20.598 118.458C20.598 118.458 18.9928 118.544 17.9713 119.543Z" fill="#0652DD"/>
<path d="M15.0123 118.018C15.0123 118.018 17.3405 114.505 20.6106 114.42" stroke="#0652DD" stroke-miterlimit="10"/>
<path d="M13.1931 115.895C13.1931 115.895 10.8649 112.382 7.59485 112.297" stroke="#0652DD" stroke-miterlimit="10"/>
<path d="M12.8896 120.911C12.8896 120.911 15.2178 117.398 18.4879 117.313" stroke="#0652DD" stroke-miterlimit="10"/>
<path d="M20.4981 114.978C20.8315 114.978 21.1017 114.72 21.1017 114.401C21.1017 114.081 20.8315 113.823 20.4981 113.823C20.1648 113.823 19.8945 114.081 19.8945 114.401C19.8945 114.72 20.1648 114.978 20.4981 114.978Z" fill="#0652DD"/>
<path d="M7.65219 112.905C7.98555 112.905 8.25579 112.646 8.25579 112.327C8.25579 112.008 7.98555 111.749 7.65219 111.749C7.31883 111.749 7.04858 112.008 7.04858 112.327C7.04858 112.646 7.31883 112.905 7.65219 112.905Z" fill="#0652DD"/>
<path d="M14.6034 122.062C14.6034 122.062 12.2752 118.549 9.00513 118.464" stroke="#0652DD" stroke-miterlimit="10"/>
<path d="M9.06307 119.076C9.39643 119.076 9.66667 118.817 9.66667 118.498C9.66667 118.179 9.39643 117.92 9.06307 117.92C8.72971 117.92 8.45947 118.179 8.45947 118.498C8.45947 118.817 8.72971 119.076 9.06307 119.076Z" fill="#0652DD"/>
<path d="M18.5323 117.92C18.8657 117.92 19.1359 117.662 19.1359 117.342C19.1359 117.023 18.8657 116.765 18.5323 116.765C18.199 116.765 17.9287 117.023 17.9287 117.342C17.9287 117.662 18.199 117.92 18.5323 117.92Z" fill="#0652DD"/>
<path d="M27.478 130.771C27.478 130.771 21.8665 129.696 20.3674 128.263C18.8684 126.83 12.1381 124.325 11.3886 126.115C10.6391 127.905 1.28656 133.994 7.64759 135.069C14.0086 136.144 22.6138 136.502 24.4843 135.784C26.3548 135.067 27.478 130.771 27.478 130.771Z" fill="#A8A8A8"/>
<path opacity="0.2" d="M7.64819 134.402C14.0092 135.477 22.6144 135.835 24.4849 135.117C25.9088 134.571 26.8993 131.943 27.2906 130.732L27.4786 130.771C27.4786 130.771 26.3554 135.069 24.4849 135.784C22.6144 136.499 14.0092 136.142 7.64819 135.069C5.81307 134.758 5.28686 134.03 5.48584 133.109C5.64061 133.702 6.2818 134.171 7.64819 134.402Z" fill="black"/>
<path d="M197.847 110.587C197.847 110.587 199.7 112.915 196.991 116.407C194.283 119.899 192.05 122.864 192.954 125.048C192.954 125.048 197.04 118.545 200.365 118.454C203.69 118.363 201.506 114.496 197.847 110.587Z" fill="#0652DD"/>
<path opacity="0.1" d="M197.846 110.587C198.008 110.812 198.135 111.057 198.224 111.315C201.47 114.964 203.197 118.369 200.079 118.456C197.174 118.536 193.689 123.508 192.854 124.765C192.881 124.862 192.914 124.957 192.953 125.05C192.953 125.05 197.039 118.547 200.364 118.456C203.69 118.365 201.505 114.496 197.846 110.587Z" fill="black"/>
<path d="M201.291 113.541C201.291 114.358 201.196 115.023 201.07 115.023C200.944 115.023 200.849 114.36 200.849 113.541C200.849 112.722 200.968 113.118 201.085 113.118C201.203 113.118 201.291 112.727 201.291 113.541Z" fill="#FFD037"/>
<path d="M202.474 114.517C201.724 114.909 201.072 115.152 201.017 115.044C200.961 114.936 201.521 114.547 202.27 114.158C203.02 113.768 202.724 114.052 202.781 114.158C202.839 114.263 203.221 114.126 202.474 114.517Z" fill="#FFD037"/>
<path d="M188.061 110.587C188.061 110.587 186.208 112.915 188.917 116.407C191.625 119.899 193.858 122.864 192.954 125.048C192.954 125.048 188.868 118.545 185.543 118.454C182.217 118.363 184.402 114.496 188.061 110.587Z" fill="#0652DD"/>
<path opacity="0.1" d="M188.061 110.587C187.899 110.812 187.772 111.057 187.683 111.315C184.437 114.964 182.71 118.369 185.828 118.456C188.733 118.536 192.218 123.508 193.053 124.765C193.026 124.862 192.993 124.957 192.954 125.05C192.954 125.05 188.868 118.547 185.543 118.456C182.217 118.365 184.402 114.496 188.061 110.587Z" fill="black"/>
<path d="M184.616 113.541C184.616 114.358 184.711 115.023 184.837 115.023C184.963 115.023 185.058 114.36 185.058 113.541C185.058 112.722 184.938 113.118 184.821 113.118C184.704 113.118 184.616 112.727 184.616 113.541Z" fill="#FFD037"/>
<path d="M183.433 114.517C184.183 114.909 184.835 115.152 184.89 115.044C184.945 114.936 184.386 114.547 183.636 114.158C182.887 113.768 183.183 114.052 183.126 114.158C183.068 114.263 182.684 114.126 183.433 114.517Z" fill="#FFD037"/>
<path d="M185.206 124.743C185.206 124.743 190.386 124.591 191.947 123.526C193.508 122.462 199.907 121.198 200.302 122.891C200.698 124.585 208.087 131.38 202.239 131.425C196.391 131.469 188.651 130.553 187.092 129.645C185.533 128.737 185.206 124.743 185.206 124.743Z" fill="#A8A8A8"/>
<path opacity="0.2" d="M202.343 130.838C196.495 130.883 188.754 129.966 187.196 129.058C186.008 128.366 185.535 125.884 185.378 124.739H185.206C185.206 124.739 185.533 128.739 187.092 129.647C188.651 130.554 196.391 131.473 202.239 131.426C203.929 131.414 204.51 130.838 204.479 129.987C204.245 130.506 203.61 130.827 202.343 130.838Z" fill="black"/>
<path opacity="0.5" d="M39.3201 15.7964H37.9316C38.0632 15.8024 38.1946 15.7828 38.3179 15.7387C38.4413 15.6947 38.554 15.6272 38.6493 15.5402C38.7446 15.4532 38.8205 15.3487 38.8723 15.2328C38.9241 15.117 38.9508 14.9923 38.9508 14.8662C38.9508 14.7402 38.9241 14.6155 38.8723 14.4997C38.8205 14.3838 38.7446 14.2793 38.6493 14.1923C38.554 14.1053 38.4413 14.0378 38.3179 13.9938C38.1946 13.9497 38.0632 13.9301 37.9316 13.9361H26.6821C26.4324 13.9475 26.1969 14.0505 26.0244 14.2237C25.8519 14.3969 25.7556 14.627 25.7556 14.8662C25.7556 15.1055 25.8519 15.3356 26.0244 15.5088C26.1969 15.682 26.4324 15.785 26.6821 15.7964H28.0706C27.8209 15.8078 27.5854 15.9108 27.4129 16.0839C27.2404 16.2571 27.1441 16.4872 27.1441 16.7265C27.1441 16.9658 27.2404 17.1959 27.4129 17.3691C27.5854 17.5423 27.8209 17.6452 28.0706 17.6566H26.1272C25.8775 17.668 25.6419 17.771 25.4694 17.9442C25.2969 18.1174 25.2007 18.3475 25.2007 18.5868C25.2007 18.8261 25.2969 19.0562 25.4694 19.2293C25.6419 19.4025 25.8775 19.5055 26.1272 19.5169H37.3767C37.5082 19.5229 37.6396 19.5033 37.763 19.4593C37.8863 19.4152 37.9991 19.3477 38.0944 19.2607C38.1896 19.1738 38.2655 19.0692 38.3173 18.9533C38.3692 18.8375 38.3959 18.7128 38.3959 18.5868C38.3959 18.4607 38.3692 18.336 38.3173 18.2202C38.2655 18.1043 38.1896 17.9998 38.0944 17.9128C37.9991 17.8258 37.8863 17.7583 37.763 17.7143C37.6396 17.6702 37.5082 17.6506 37.3767 17.6566H39.3201C39.5698 17.6452 39.8054 17.5423 39.9779 17.3691C40.1504 17.1959 40.2466 16.9658 40.2466 16.7265C40.2466 16.4872 40.1504 16.2571 39.9779 16.0839C39.8054 15.9108 39.5698 15.8078 39.3201 15.7964Z" fill="#DEE3F3"/>
</g>
<defs>
<linearGradient id="paint0_linear" x1="101.816" y1="115.078" x2="101.816" y2="27.4616" gradientUnits="userSpaceOnUse">
<stop stop-color="#808080" stop-opacity="0.25"/>
<stop offset="0.54" stop-color="#808080" stop-opacity="0.12"/>
<stop offset="1" stop-color="#808080" stop-opacity="0.1"/>
</linearGradient>
<linearGradient id="paint1_linear" x1="84.6537" y1="100.176" x2="84.6537" y2="100.166" gradientUnits="userSpaceOnUse">
<stop stop-color="#808080" stop-opacity="0.25"/>
<stop offset="0.54" stop-color="#808080" stop-opacity="0.12"/>
<stop offset="1" stop-color="#808080" stop-opacity="0.1"/>
</linearGradient>
<linearGradient id="paint2_linear" x1="14237.8" y1="42792.1" x2="14237.8" y2="19185.8" gradientUnits="userSpaceOnUse">
<stop stop-color="#808080" stop-opacity="0.25"/>
<stop offset="0.54" stop-color="#808080" stop-opacity="0.12"/>
<stop offset="1" stop-color="#808080" stop-opacity="0.1"/>
</linearGradient>
<linearGradient id="paint3_linear" x1="40107.8" y1="51872.3" x2="40107.8" y2="16813.3" gradientUnits="userSpaceOnUse">
<stop stop-color="#808080" stop-opacity="0.25"/>
<stop offset="0.54" stop-color="#808080" stop-opacity="0.12"/>
<stop offset="1" stop-color="#808080" stop-opacity="0.1"/>
</linearGradient>
<clipPath id="clip0">
<rect width="210" height="140" fill="white"/>
</clipPath>
</defs>
</svg>
